<?xml version="1.0" encoding="UTF-8"?>
<svg xmlns="http://www.w3.org/2000/svg" id="Ebene_1" viewBox="0 0 1190.55 841.89">
  <defs>
    <style>.cls-1{fill:#d57b16;}.cls-1,.cls-2,.cls-3,.cls-4{stroke-width:0px;}.cls-2{fill:#c9da9c;}.cls-5{stroke:#8bb63a;stroke-width:3.64px;}.cls-5,.cls-4{fill:#8bb63a;}.cls-3{fill:#ebc08b;}</style>
  </defs>
  <path class="cls-5" d="M448.08,592.63c0,3.18-2.58,5.77-5.77,5.77s-5.77-2.58-5.77-5.77,2.58-5.77,5.77-5.77,5.77,2.58,5.77,5.77Z"></path>
  <path class="cls-5" d="M474.88,592.63c0,3.18-2.58,5.77-5.77,5.77s-5.77-2.58-5.77-5.77,2.58-5.77,5.77-5.77,5.77,2.58,5.77,5.77Z"></path>
  <path class="cls-5" d="M501.74,592.63c0,3.18-2.58,5.77-5.77,5.77s-5.77-2.58-5.77-5.77,2.58-5.77,5.77-5.77,5.77,2.58,5.77,5.77Z"></path>
  <path class="cls-5" d="M528.59,592.63c0,3.18-2.58,5.77-5.77,5.77s-5.77-2.58-5.77-5.77,2.58-5.77,5.77-5.77,5.77,2.58,5.77,5.77Z"></path>
  <path class="cls-5" d="M555.47,592.63c0,3.18-2.58,5.77-5.77,5.77s-5.77-2.58-5.77-5.77,2.58-5.77,5.77-5.77,5.77,2.58,5.77,5.77Z"></path>
  <path class="cls-5" d="M582.31,592.63c0,3.18-2.58,5.77-5.77,5.77s-5.77-2.58-5.77-5.77,2.58-5.77,5.77-5.77,5.77,2.58,5.77,5.77Z"></path>
  <path class="cls-5" d="M461.42,606.5c0,3.18-2.58,5.77-5.77,5.77s-5.77-2.58-5.77-5.77,2.58-5.76,5.77-5.76,5.77,2.58,5.77,5.76Z"></path>
  <path class="cls-5" d="M515.11,606.5c0,3.18-2.58,5.77-5.77,5.77s-5.77-2.58-5.77-5.77,2.58-5.76,5.77-5.76,5.77,2.58,5.77,5.76Z"></path>
  <path class="cls-5" d="M595.52,606.5c0,3.18-2.58,5.77-5.77,5.77s-5.77-2.58-5.77-5.77,2.58-5.76,5.77-5.76,5.77,2.58,5.77,5.76Z"></path>
  <path class="cls-5" d="M367.5,567.23c0,3.18-2.58,5.76-5.77,5.76s-5.77-2.58-5.77-5.76,2.58-5.77,5.77-5.77,5.77,2.58,5.77,5.77Z"></path>
  <path class="cls-5" d="M448.08,567.23c0,3.18-2.58,5.76-5.77,5.76s-5.77-2.58-5.77-5.76,2.58-5.77,5.77-5.77,5.77,2.58,5.77,5.77Z"></path>
  <path class="cls-5" d="M474.88,567.23c0,3.18-2.58,5.76-5.77,5.76s-5.77-2.58-5.77-5.76,2.58-5.77,5.77-5.77,5.77,2.58,5.77,5.77Z"></path>
  <path class="cls-5" d="M501.74,567.23c0,3.18-2.58,5.76-5.77,5.76s-5.77-2.58-5.77-5.76,2.58-5.77,5.77-5.77,5.77,2.58,5.77,5.77Z"></path>
  <path class="cls-5" d="M528.59,567.23c0,3.18-2.58,5.76-5.77,5.76s-5.77-2.58-5.77-5.76,2.58-5.77,5.77-5.77,5.77,2.58,5.77,5.77Z"></path>
  <path class="cls-5" d="M555.47,567.23c0,3.18-2.58,5.76-5.77,5.76s-5.77-2.58-5.77-5.76,2.58-5.77,5.77-5.77,5.77,2.58,5.77,5.77Z"></path>
  <path class="cls-5" d="M582.31,567.23c0,3.18-2.58,5.76-5.77,5.76s-5.77-2.58-5.77-5.76,2.58-5.77,5.77-5.77,5.77,2.58,5.77,5.77Z"></path>
  <path class="cls-5" d="M354.08,581.1c0,3.18-2.58,5.76-5.77,5.76s-5.77-2.58-5.77-5.76,2.58-5.77,5.77-5.77,5.77,2.58,5.77,5.77Z"></path>
  <path class="cls-5" d="M380.91,581.1c0,3.18-2.58,5.76-5.77,5.76s-5.77-2.58-5.77-5.76,2.58-5.77,5.77-5.77,5.77,2.58,5.77,5.77Z"></path>
  <path class="cls-5" d="M434.61,581.1c0,3.18-2.58,5.76-5.77,5.76s-5.77-2.58-5.77-5.76,2.58-5.77,5.77-5.77,5.77,2.58,5.77,5.77Z"></path>
  <path class="cls-5" d="M461.42,581.1c0,3.18-2.58,5.76-5.77,5.76s-5.77-2.58-5.77-5.76,2.58-5.77,5.77-5.77,5.77,2.58,5.77,5.77Z"></path>
  <path class="cls-5" d="M488.25,581.1c0,3.18-2.58,5.76-5.77,5.76s-5.77-2.58-5.77-5.76,2.58-5.77,5.77-5.77,5.77,2.58,5.77,5.77Z"></path>
  <path class="cls-5" d="M515.11,581.1c0,3.18-2.58,5.76-5.77,5.76s-5.77-2.58-5.77-5.76,2.58-5.77,5.77-5.77,5.77,2.58,5.77,5.77Z"></path>
  <path class="cls-5" d="M541.97,581.1c0,3.18-2.58,5.76-5.77,5.76s-5.77-2.58-5.77-5.76,2.58-5.77,5.77-5.77,5.77,2.58,5.77,5.77Z"></path>
  <path class="cls-5" d="M568.79,581.1c0,3.18-2.58,5.76-5.77,5.76s-5.77-2.58-5.77-5.76,2.58-5.77,5.77-5.77,5.77,2.58,5.77,5.77Z"></path>
  <path class="cls-5" d="M595.52,581.1c0,3.18-2.58,5.76-5.77,5.76s-5.77-2.58-5.77-5.76,2.58-5.77,5.77-5.77,5.77,2.58,5.77,5.77Z"></path>
  <path class="cls-5" d="M367.5,541.83c0,3.18-2.58,5.77-5.77,5.77s-5.77-2.58-5.77-5.77,2.58-5.77,5.77-5.77,5.77,2.58,5.77,5.77Z"></path>
  <path class="cls-5" d="M394.38,541.83c0,3.18-2.58,5.77-5.77,5.77s-5.77-2.58-5.77-5.77,2.58-5.77,5.77-5.77,5.77,2.58,5.77,5.77Z"></path>
  <path class="cls-5" d="M421.23,541.83c0,3.18-2.58,5.77-5.77,5.77s-5.77-2.58-5.77-5.77,2.58-5.77,5.77-5.77,5.77,2.58,5.77,5.77Z"></path>
  <path class="cls-5" d="M474.88,541.83c0,3.18-2.58,5.77-5.77,5.77s-5.77-2.58-5.77-5.77,2.58-5.77,5.77-5.77,5.77,2.58,5.77,5.77Z"></path>
  <path class="cls-5" d="M380.91,555.7c0,3.18-2.58,5.77-5.77,5.77s-5.77-2.58-5.77-5.77,2.58-5.77,5.77-5.77,5.77,2.58,5.77,5.77Z"></path>
  <path class="cls-5" d="M407.72,555.7c0,3.18-2.58,5.77-5.77,5.77s-5.77-2.58-5.77-5.77,2.58-5.77,5.77-5.77,5.77,2.58,5.77,5.77Z"></path>
  <path class="cls-5" d="M488.25,555.7c0,3.18-2.58,5.77-5.77,5.77s-5.77-2.58-5.77-5.77,2.58-5.77,5.77-5.77,5.77,2.58,5.77,5.77Z"></path>
  <path class="cls-5" d="M515.11,555.7c0,3.18-2.58,5.77-5.77,5.77s-5.77-2.58-5.77-5.77,2.58-5.77,5.77-5.77,5.77,2.58,5.77,5.77Z"></path>
  <path class="cls-5" d="M568.79,555.7c0,3.18-2.58,5.77-5.77,5.77s-5.77-2.58-5.77-5.77,2.58-5.77,5.77-5.77,5.77,2.58,5.77,5.77Z"></path>
  <path class="cls-5" d="M394.38,516.43c0,3.18-2.58,5.77-5.77,5.77s-5.77-2.58-5.77-5.77,2.58-5.77,5.77-5.77,5.77,2.58,5.77,5.77Z"></path>
  <path class="cls-5" d="M421.23,516.43c0,3.18-2.58,5.77-5.77,5.77s-5.77-2.58-5.77-5.77,2.58-5.77,5.77-5.77,5.77,2.58,5.77,5.77Z"></path>
  <path class="cls-5" d="M448.08,516.43c0,3.18-2.58,5.77-5.77,5.77s-5.77-2.58-5.77-5.77,2.58-5.77,5.77-5.77,5.77,2.58,5.77,5.77Z"></path>
  <path class="cls-5" d="M501.74,516.43c0,3.18-2.58,5.77-5.77,5.77s-5.77-2.58-5.77-5.77,2.58-5.77,5.77-5.77,5.77,2.58,5.77,5.77Z"></path>
  <path class="cls-5" d="M380.91,530.3c0,3.18-2.58,5.77-5.77,5.77s-5.77-2.58-5.77-5.77,2.58-5.76,5.77-5.76,5.77,2.58,5.77,5.76Z"></path>
  <path class="cls-5" d="M541.97,530.3c0,3.18-2.58,5.77-5.77,5.77s-5.77-2.58-5.77-5.77,2.58-5.76,5.77-5.76,5.77,2.58,5.77,5.76Z"></path>
  <path class="cls-5" d="M568.79,530.3c0,3.18-2.58,5.77-5.77,5.77s-5.77-2.58-5.77-5.77,2.58-5.76,5.77-5.76,5.77,2.58,5.77,5.76Z"></path>
  <path class="cls-5" d="M609.08,516.43c0,3.18-2.58,5.77-5.77,5.77s-5.77-2.58-5.77-5.77,2.58-5.77,5.77-5.77,5.77,2.58,5.77,5.77Z"></path>
  <path class="cls-5" d="M595.52,530.3c0,3.18-2.58,5.77-5.77,5.77s-5.77-2.58-5.77-5.77,2.58-5.76,5.77-5.76,5.77,2.58,5.77,5.76Z"></path>
  <path class="cls-5" d="M622.37,530.3c0,3.18-2.58,5.77-5.77,5.77s-5.77-2.58-5.77-5.77,2.58-5.76,5.77-5.76,5.77,2.58,5.77,5.76Z"></path>
  <path class="cls-5" d="M367.5,491.03c0,3.18-2.58,5.76-5.77,5.76s-5.77-2.58-5.77-5.76,2.58-5.77,5.77-5.77,5.77,2.58,5.77,5.77Z"></path>
  <path class="cls-5" d="M394.38,491.03c0,3.18-2.58,5.76-5.77,5.76s-5.77-2.58-5.77-5.76,2.58-5.77,5.77-5.77,5.77,2.58,5.77,5.77Z"></path>
  <path class="cls-5" d="M448.08,491.03c0,3.18-2.58,5.76-5.77,5.76s-5.77-2.58-5.77-5.76,2.58-5.77,5.77-5.77,5.77,2.58,5.77,5.77Z"></path>
  <path class="cls-5" d="M501.74,491.03c0,3.18-2.58,5.76-5.77,5.76s-5.77-2.58-5.77-5.76,2.58-5.77,5.77-5.77,5.77,2.58,5.77,5.77Z"></path>
  <path class="cls-5" d="M528.59,491.03c0,3.18-2.58,5.76-5.77,5.76s-5.77-2.58-5.77-5.76,2.58-5.77,5.77-5.77,5.77,2.58,5.77,5.77Z"></path>
  <path class="cls-5" d="M555.47,491.03c0,3.18-2.58,5.76-5.77,5.76s-5.77-2.58-5.77-5.76,2.58-5.77,5.77-5.77,5.77,2.58,5.77,5.77Z"></path>
  <path class="cls-5" d="M582.31,491.03c0,3.18-2.58,5.76-5.77,5.76s-5.77-2.58-5.77-5.76,2.58-5.77,5.77-5.77,5.77,2.58,5.77,5.77Z"></path>
  <path class="cls-5" d="M380.91,504.9c0,3.18-2.58,5.76-5.77,5.76s-5.77-2.58-5.77-5.76,2.58-5.77,5.77-5.77,5.77,2.58,5.77,5.77Z"></path>
  <path class="cls-5" d="M461.42,504.9c0,3.18-2.58,5.76-5.77,5.76s-5.77-2.58-5.77-5.76,2.58-5.77,5.77-5.77,5.77,2.58,5.77,5.77Z"></path>
  <path class="cls-5" d="M488.25,504.9c0,3.18-2.58,5.76-5.77,5.76s-5.77-2.58-5.77-5.76,2.58-5.77,5.77-5.77,5.77,2.58,5.77,5.77Z"></path>
  <path class="cls-5" d="M515.11,504.9c0,3.18-2.58,5.76-5.77,5.76s-5.77-2.58-5.77-5.76,2.58-5.77,5.77-5.77,5.77,2.58,5.77,5.77Z"></path>
  <path class="cls-5" d="M568.79,504.9c0,3.18-2.58,5.76-5.77,5.76s-5.77-2.58-5.77-5.76,2.58-5.77,5.77-5.77,5.77,2.58,5.77,5.77Z"></path>
  <path class="cls-5" d="M595.52,504.9c0,3.18-2.58,5.76-5.77,5.76s-5.77-2.58-5.77-5.76,2.58-5.77,5.77-5.77,5.77,2.58,5.77,5.77Z"></path>
  <path class="cls-5" d="M622.37,504.9c0,3.18-2.58,5.76-5.77,5.76s-5.77-2.58-5.77-5.76,2.58-5.77,5.77-5.77,5.77,2.58,5.77,5.77Z"></path>
  <path class="cls-5" d="M313.89,465.63c0,3.18-2.58,5.77-5.77,5.77s-5.77-2.58-5.77-5.77,2.58-5.77,5.77-5.77,5.77,2.58,5.77,5.77Z"></path>
  <path class="cls-5" d="M367.5,465.63c0,3.18-2.58,5.77-5.77,5.77s-5.77-2.58-5.77-5.77,2.58-5.77,5.77-5.77,5.77,2.58,5.77,5.77Z"></path>
  <path class="cls-5" d="M394.38,465.63c0,3.18-2.58,5.77-5.77,5.77s-5.77-2.58-5.77-5.77,2.58-5.77,5.77-5.77,5.77,2.58,5.77,5.77Z"></path>
  <path class="cls-5" d="M474.88,465.63c0,3.18-2.58,5.77-5.77,5.77s-5.77-2.58-5.77-5.77,2.58-5.77,5.77-5.77,5.77,2.58,5.77,5.77Z"></path>
  <path class="cls-5" d="M501.74,465.63c0,3.18-2.58,5.77-5.77,5.77s-5.77-2.58-5.77-5.77,2.58-5.77,5.77-5.77,5.77,2.58,5.77,5.77Z"></path>
  <path class="cls-5" d="M528.59,465.63c0,3.18-2.58,5.77-5.77,5.77s-5.77-2.58-5.77-5.77,2.58-5.77,5.77-5.77,5.77,2.58,5.77,5.77Z"></path>
  <path class="cls-5" d="M555.47,465.63c0,3.18-2.58,5.77-5.77,5.77s-5.77-2.58-5.77-5.77,2.58-5.77,5.77-5.77,5.77,2.58,5.77,5.77Z"></path>
  <path class="cls-5" d="M327.26,479.5c0,3.18-2.58,5.77-5.77,5.77s-5.77-2.58-5.77-5.77,2.58-5.77,5.77-5.77,5.77,2.58,5.77,5.77Z"></path>
  <path class="cls-5" d="M354.08,479.5c0,3.18-2.58,5.77-5.77,5.77s-5.77-2.58-5.77-5.77,2.58-5.77,5.77-5.77,5.77,2.58,5.77,5.77Z"></path>
  <path class="cls-5" d="M434.61,479.5c0,3.18-2.58,5.77-5.77,5.77s-5.77-2.58-5.77-5.77,2.58-5.77,5.77-5.77,5.77,2.58,5.77,5.77Z"></path>
  <path class="cls-5" d="M461.42,479.5c0,3.18-2.58,5.77-5.77,5.77s-5.77-2.58-5.77-5.77,2.58-5.77,5.77-5.77,5.77,2.58,5.77,5.77Z"></path>
  <path class="cls-5" d="M488.25,479.5c0,3.18-2.58,5.77-5.77,5.77s-5.77-2.58-5.77-5.77,2.58-5.77,5.77-5.77,5.77,2.58,5.77,5.77Z"></path>
  <path class="cls-5" d="M541.97,479.5c0,3.18-2.58,5.77-5.77,5.77s-5.77-2.58-5.77-5.77,2.58-5.77,5.77-5.77,5.77,2.58,5.77,5.77Z"></path>
  <path class="cls-5" d="M568.79,479.5c0,3.18-2.58,5.77-5.77,5.77s-5.77-2.58-5.77-5.77,2.58-5.77,5.77-5.77,5.77,2.58,5.77,5.77Z"></path>
  <path class="cls-5" d="M340.72,440.24c0,3.18-2.58,5.77-5.77,5.77s-5.77-2.58-5.77-5.77,2.58-5.77,5.77-5.77,5.77,2.58,5.77,5.77Z"></path>
  <path class="cls-5" d="M394.38,440.24c0,3.18-2.58,5.77-5.77,5.77s-5.77-2.58-5.77-5.77,2.58-5.77,5.77-5.77,5.77,2.58,5.77,5.77Z"></path>
  <path class="cls-5" d="M421.23,440.24c0,3.18-2.58,5.77-5.77,5.77s-5.77-2.58-5.77-5.77,2.58-5.77,5.77-5.77,5.77,2.58,5.77,5.77Z"></path>
  <path class="cls-5" d="M501.74,440.24c0,3.18-2.58,5.77-5.77,5.77s-5.77-2.58-5.77-5.77,2.58-5.77,5.77-5.77,5.77,2.58,5.77,5.77Z"></path>
  <path class="cls-5" d="M528.59,440.24c0,3.18-2.58,5.77-5.77,5.77s-5.77-2.58-5.77-5.77,2.58-5.77,5.77-5.77,5.77,2.58,5.77,5.77Z"></path>
  <path class="cls-5" d="M555.47,440.24c0,3.18-2.58,5.77-5.77,5.77s-5.77-2.58-5.77-5.77,2.58-5.77,5.77-5.77,5.77,2.58,5.77,5.77Z"></path>
  <path class="cls-5" d="M327.26,454.1c0,3.18-2.58,5.77-5.77,5.77s-5.77-2.58-5.77-5.77,2.58-5.77,5.77-5.77,5.77,2.58,5.77,5.77Z"></path>
  <path class="cls-5" d="M407.72,454.1c0,3.18-2.58,5.77-5.77,5.77s-5.77-2.58-5.77-5.77,2.58-5.77,5.77-5.77,5.77,2.58,5.77,5.77Z"></path>
  <path class="cls-5" d="M515.11,454.1c0,3.18-2.58,5.77-5.77,5.77s-5.77-2.58-5.77-5.77,2.58-5.77,5.77-5.77,5.77,2.58,5.77,5.77Z"></path>
  <path class="cls-5" d="M541.97,454.1c0,3.18-2.58,5.77-5.77,5.77s-5.77-2.58-5.77-5.77,2.58-5.77,5.77-5.77,5.77,2.58,5.77,5.77Z"></path>
  <path class="cls-5" d="M568.79,454.1c0,3.18-2.58,5.77-5.77,5.77s-5.77-2.58-5.77-5.77,2.58-5.77,5.77-5.77,5.77,2.58,5.77,5.77Z"></path>
  <path class="cls-5" d="M313.89,414.84c0,3.18-2.58,5.77-5.77,5.77s-5.77-2.58-5.77-5.77,2.58-5.77,5.77-5.77,5.77,2.58,5.77,5.77Z"></path>
  <path class="cls-5" d="M340.72,414.84c0,3.18-2.58,5.77-5.77,5.77s-5.77-2.58-5.77-5.77,2.58-5.77,5.77-5.77,5.77,2.58,5.77,5.77Z"></path>
  <path class="cls-5" d="M367.5,414.84c0,3.18-2.58,5.77-5.77,5.77s-5.77-2.58-5.77-5.77,2.58-5.77,5.77-5.77,5.77,2.58,5.77,5.77Z"></path>
  <path class="cls-5" d="M421.23,414.84c0,3.18-2.58,5.77-5.77,5.77s-5.77-2.58-5.77-5.77,2.58-5.77,5.77-5.77,5.77,2.58,5.77,5.77Z"></path>
  <path class="cls-5" d="M448.08,414.84c0,3.18-2.58,5.77-5.77,5.77s-5.77-2.58-5.77-5.77,2.58-5.77,5.77-5.77,5.77,2.58,5.77,5.77Z"></path>
  <path class="cls-5" d="M501.74,414.84c0,3.18-2.58,5.77-5.77,5.77s-5.77-2.58-5.77-5.77,2.58-5.77,5.77-5.77,5.77,2.58,5.77,5.77Z"></path>
  <path class="cls-5" d="M528.59,414.84c0,3.18-2.58,5.77-5.77,5.77s-5.77-2.58-5.77-5.77,2.58-5.77,5.77-5.77,5.77,2.58,5.77,5.77Z"></path>
  <path class="cls-5" d="M555.47,414.84c0,3.18-2.58,5.77-5.77,5.77s-5.77-2.58-5.77-5.77,2.58-5.77,5.77-5.77,5.77,2.58,5.77,5.77Z"></path>
  <path class="cls-5" d="M327.26,428.7c0,3.18-2.58,5.77-5.77,5.77s-5.77-2.58-5.77-5.77,2.58-5.76,5.77-5.76,5.77,2.58,5.77,5.76Z"></path>
  <path class="cls-5" d="M354.08,428.7c0,3.18-2.58,5.77-5.77,5.77s-5.77-2.58-5.77-5.77,2.58-5.76,5.77-5.76,5.77,2.58,5.77,5.76Z"></path>
  <path class="cls-5" d="M407.72,428.7c0,3.18-2.58,5.77-5.77,5.77s-5.77-2.58-5.77-5.77,2.58-5.76,5.77-5.76,5.77,2.58,5.77,5.76Z"></path>
  <path class="cls-5" d="M434.61,428.7c0,3.18-2.58,5.77-5.77,5.77s-5.77-2.58-5.77-5.77,2.58-5.76,5.77-5.76,5.77,2.58,5.77,5.76Z"></path>
  <path class="cls-5" d="M313.89,389.44c0,3.18-2.58,5.77-5.77,5.77s-5.77-2.58-5.77-5.77,2.58-5.77,5.77-5.77,5.77,2.58,5.77,5.77Z"></path>
  <path class="cls-5" d="M474.88,389.44c0,3.18-2.58,5.77-5.77,5.77s-5.77-2.58-5.77-5.77,2.58-5.77,5.77-5.77,5.77,2.58,5.77,5.77Z"></path>
  <path class="cls-5" d="M501.74,389.44c0,3.18-2.58,5.77-5.77,5.77s-5.77-2.58-5.77-5.77,2.58-5.77,5.77-5.77,5.77,2.58,5.77,5.77Z"></path>
  <path class="cls-5" d="M528.59,389.44c0,3.18-2.58,5.77-5.77,5.77s-5.77-2.58-5.77-5.77,2.58-5.77,5.77-5.77,5.77,2.58,5.77,5.77Z"></path>
  <path class="cls-5" d="M555.47,389.44c0,3.18-2.58,5.77-5.77,5.77s-5.77-2.58-5.77-5.77,2.58-5.77,5.77-5.77,5.77,2.58,5.77,5.77Z"></path>
  <path class="cls-5" d="M582.31,389.44c0,3.18-2.58,5.77-5.77,5.77s-5.77-2.58-5.77-5.77,2.58-5.77,5.77-5.77,5.77,2.58,5.77,5.77Z"></path>
  <path class="cls-5" d="M327.26,403.31c0,3.18-2.58,5.77-5.77,5.77s-5.77-2.58-5.77-5.77,2.58-5.77,5.77-5.77,5.77,2.58,5.77,5.77Z"></path>
  <path class="cls-5" d="M354.08,403.31c0,3.18-2.58,5.77-5.77,5.77s-5.77-2.58-5.77-5.77,2.58-5.77,5.77-5.77,5.77,2.58,5.77,5.77Z"></path>
  <path class="cls-5" d="M380.91,403.31c0,3.18-2.58,5.77-5.77,5.77s-5.77-2.58-5.77-5.77,2.58-5.77,5.77-5.77,5.77,2.58,5.77,5.77Z"></path>
  <path class="cls-5" d="M434.61,403.31c0,3.18-2.58,5.77-5.77,5.77s-5.77-2.58-5.77-5.77,2.58-5.77,5.77-5.77,5.77,2.58,5.77,5.77Z"></path>
  <path class="cls-5" d="M488.25,403.31c0,3.18-2.58,5.77-5.77,5.77s-5.77-2.58-5.77-5.77,2.58-5.77,5.77-5.77,5.77,2.58,5.77,5.77Z"></path>
  <path class="cls-5" d="M515.11,403.31c0,3.18-2.58,5.77-5.77,5.77s-5.77-2.58-5.77-5.77,2.58-5.77,5.77-5.77,5.77,2.58,5.77,5.77Z"></path>
  <path class="cls-5" d="M541.97,403.31c0,3.18-2.58,5.77-5.77,5.77s-5.77-2.58-5.77-5.77,2.58-5.77,5.77-5.77,5.77,2.58,5.77,5.77Z"></path>
  <path class="cls-5" d="M568.79,403.31c0,3.18-2.58,5.77-5.77,5.77s-5.77-2.58-5.77-5.77,2.58-5.77,5.77-5.77,5.77,2.58,5.77,5.77Z"></path>
  <path class="cls-5" d="M367.5,364.04c0,3.18-2.58,5.77-5.77,5.77s-5.77-2.58-5.77-5.77,2.58-5.77,5.77-5.77,5.77,2.58,5.77,5.77Z"></path>
  <path class="cls-5" d="M394.38,364.04c0,3.18-2.58,5.77-5.77,5.77s-5.77-2.58-5.77-5.77,2.58-5.77,5.77-5.77,5.77,2.58,5.77,5.77Z"></path>
  <path class="cls-5" d="M528.59,364.04c0,3.18-2.58,5.77-5.77,5.77s-5.77-2.58-5.77-5.77,2.58-5.77,5.77-5.77,5.77,2.58,5.77,5.77Z"></path>
  <path class="cls-5" d="M300.4,377.91c0,3.18-2.58,5.77-5.77,5.77s-5.77-2.58-5.77-5.77,2.58-5.77,5.77-5.77,5.77,2.58,5.77,5.77Z"></path>
  <path class="cls-5" d="M380.91,377.91c0,3.18-2.58,5.77-5.77,5.77s-5.77-2.58-5.77-5.77,2.58-5.77,5.77-5.77,5.77,2.58,5.77,5.77Z"></path>
  <path class="cls-5" d="M434.61,377.91c0,3.18-2.58,5.77-5.77,5.77s-5.77-2.58-5.77-5.77,2.58-5.77,5.77-5.77,5.77,2.58,5.77,5.77Z"></path>
  <path class="cls-5" d="M461.42,377.91c0,3.18-2.58,5.77-5.77,5.77s-5.77-2.58-5.77-5.77,2.58-5.77,5.77-5.77,5.77,2.58,5.77,5.77Z"></path>
  <path class="cls-5" d="M515.11,377.91c0,3.18-2.58,5.77-5.77,5.77s-5.77-2.58-5.77-5.77,2.58-5.77,5.77-5.77,5.77,2.58,5.77,5.77Z"></path>
  <path class="cls-5" d="M541.97,377.91c0,3.18-2.58,5.77-5.77,5.77s-5.77-2.58-5.77-5.77,2.58-5.77,5.77-5.77,5.77,2.58,5.77,5.77Z"></path>
  <path class="cls-5" d="M595.52,377.91c0,3.18-2.58,5.77-5.77,5.77s-5.77-2.58-5.77-5.77,2.58-5.77,5.77-5.77,5.77,2.58,5.77,5.77Z"></path>
  <path class="cls-5" d="M622.37,377.91c0,3.18-2.58,5.77-5.77,5.77s-5.77-2.58-5.77-5.77,2.58-5.77,5.77-5.77,5.77,2.58,5.77,5.77Z"></path>
  <path class="cls-5" d="M367.5,338.64c0,3.18-2.58,5.77-5.77,5.77s-5.77-2.58-5.77-5.77,2.58-5.77,5.77-5.77,5.77,2.58,5.77,5.77Z"></path>
  <path class="cls-5" d="M394.38,338.64c0,3.18-2.58,5.77-5.77,5.77s-5.77-2.58-5.77-5.77,2.58-5.77,5.77-5.77,5.77,2.58,5.77,5.77Z"></path>
  <path class="cls-5" d="M448.08,338.64c0,3.18-2.58,5.77-5.77,5.77s-5.77-2.58-5.77-5.77,2.58-5.77,5.77-5.77,5.77,2.58,5.77,5.77Z"></path>
  <path class="cls-5" d="M354.08,352.51c0,3.18-2.58,5.77-5.77,5.77s-5.77-2.58-5.77-5.77,2.58-5.77,5.77-5.77,5.77,2.58,5.77,5.77Z"></path>
  <path class="cls-5" d="M380.91,352.51c0,3.18-2.58,5.77-5.77,5.77s-5.77-2.58-5.77-5.77,2.58-5.77,5.77-5.77,5.77,2.58,5.77,5.77Z"></path>
  <path class="cls-5" d="M407.72,352.51c0,3.18-2.58,5.77-5.77,5.77s-5.77-2.58-5.77-5.77,2.58-5.77,5.77-5.77,5.77,2.58,5.77,5.77Z"></path>
  <path class="cls-5" d="M434.61,352.51c0,3.18-2.58,5.77-5.77,5.77s-5.77-2.58-5.77-5.77,2.58-5.77,5.77-5.77,5.77,2.58,5.77,5.77Z"></path>
  <path class="cls-5" d="M609.08,338.64c0,3.18-2.58,5.77-5.77,5.77s-5.77-2.58-5.77-5.77,2.58-5.77,5.77-5.77,5.77,2.58,5.77,5.77Z"></path>
  <path class="cls-5" d="M635.85,338.64c0,3.18-2.58,5.77-5.77,5.77s-5.77-2.58-5.77-5.77,2.58-5.77,5.77-5.77,5.77,2.58,5.77,5.77Z"></path>
  <path class="cls-5" d="M662.54,338.64c0,3.18-2.58,5.77-5.76,5.77s-5.77-2.58-5.77-5.77,2.58-5.77,5.77-5.77,5.76,2.58,5.76,5.77Z"></path>
  <path class="cls-5" d="M340.72,313.24c0,3.18-2.58,5.77-5.77,5.77s-5.77-2.58-5.77-5.77,2.58-5.77,5.77-5.77,5.77,2.58,5.77,5.77Z"></path>
  <path class="cls-5" d="M474.88,313.24c0,3.18-2.58,5.77-5.77,5.77s-5.77-2.58-5.77-5.77,2.58-5.77,5.77-5.77,5.77,2.58,5.77,5.77Z"></path>
  <path class="cls-5" d="M555.47,313.24c0,3.18-2.58,5.77-5.77,5.77s-5.77-2.58-5.77-5.77,2.58-5.77,5.77-5.77,5.77,2.58,5.77,5.77Z"></path>
  <path class="cls-5" d="M582.31,313.24c0,3.18-2.58,5.77-5.77,5.77s-5.77-2.58-5.77-5.77,2.58-5.77,5.77-5.77,5.77,2.58,5.77,5.77Z"></path>
  <path class="cls-5" d="M380.91,327.11c0,3.18-2.58,5.77-5.77,5.77s-5.77-2.58-5.77-5.77,2.58-5.77,5.77-5.77,5.77,2.58,5.77,5.77Z"></path>
  <path class="cls-5" d="M407.72,327.11c0,3.18-2.58,5.77-5.77,5.77s-5.77-2.58-5.77-5.77,2.58-5.77,5.77-5.77,5.77,2.58,5.77,5.77Z"></path>
  <path class="cls-5" d="M434.61,327.11c0,3.18-2.58,5.77-5.77,5.77s-5.77-2.58-5.77-5.77,2.58-5.77,5.77-5.77,5.77,2.58,5.77,5.77Z"></path>
  <path class="cls-5" d="M488.25,327.11c0,3.18-2.58,5.77-5.77,5.77s-5.77-2.58-5.77-5.77,2.58-5.77,5.77-5.77,5.77,2.58,5.77,5.77Z"></path>
  <path class="cls-5" d="M515.11,327.11c0,3.18-2.58,5.77-5.77,5.77s-5.77-2.58-5.77-5.77,2.58-5.77,5.77-5.77,5.77,2.58,5.77,5.77Z"></path>
  <path class="cls-5" d="M568.79,327.11c0,3.18-2.58,5.77-5.77,5.77s-5.77-2.58-5.77-5.77,2.58-5.77,5.77-5.77,5.77,2.58,5.77,5.77Z"></path>
  <path class="cls-5" d="M595.52,327.11c0,3.18-2.58,5.77-5.77,5.77s-5.77-2.58-5.77-5.77,2.58-5.77,5.77-5.77,5.77,2.58,5.77,5.77Z"></path>
  <path class="cls-5" d="M635.85,313.24c0,3.18-2.58,5.77-5.77,5.77s-5.77-2.58-5.77-5.77,2.58-5.77,5.77-5.77,5.77,2.58,5.77,5.77Z"></path>
  <path class="cls-5" d="M649.14,327.11c0,3.18-2.58,5.77-5.77,5.77s-5.77-2.58-5.77-5.77,2.58-5.77,5.77-5.77,5.77,2.58,5.77,5.77Z"></path>
  <path class="cls-5" d="M622.37,327.11c0,3.18-2.58,5.77-5.77,5.77s-5.77-2.58-5.77-5.77,2.58-5.77,5.77-5.77,5.77,2.58,5.77,5.77Z"></path>
  <path class="cls-5" d="M394.38,287.84c0,3.18-2.58,5.77-5.77,5.77s-5.77-2.58-5.77-5.77,2.58-5.77,5.77-5.77,5.77,2.58,5.77,5.77Z"></path>
  <path class="cls-5" d="M555.47,287.84c0,3.18-2.58,5.77-5.77,5.77s-5.77-2.58-5.77-5.77,2.58-5.77,5.77-5.77,5.77,2.58,5.77,5.77Z"></path>
  <path class="cls-5" d="M582.31,287.84c0,3.18-2.58,5.77-5.77,5.77s-5.77-2.58-5.77-5.77,2.58-5.77,5.77-5.77,5.77,2.58,5.77,5.77Z"></path>
  <path class="cls-5" d="M407.72,301.71c0,3.18-2.58,5.77-5.77,5.77s-5.77-2.58-5.77-5.77,2.58-5.77,5.77-5.77,5.77,2.58,5.77,5.77Z"></path>
  <path class="cls-5" d="M461.42,301.71c0,3.18-2.58,5.77-5.77,5.77s-5.77-2.58-5.77-5.77,2.58-5.77,5.77-5.77,5.77,2.58,5.77,5.77Z"></path>
  <path class="cls-5" d="M541.97,301.71c0,3.18-2.58,5.77-5.77,5.77s-5.77-2.58-5.77-5.77,2.58-5.77,5.77-5.77,5.77,2.58,5.77,5.77Z"></path>
  <path class="cls-5" d="M609.08,287.84c0,3.18-2.58,5.77-5.77,5.77s-5.77-2.58-5.77-5.77,2.58-5.77,5.77-5.77,5.77,2.58,5.77,5.77Z"></path>
  <path class="cls-5" d="M595.52,301.71c0,3.18-2.58,5.77-5.77,5.77s-5.77-2.58-5.77-5.77,2.58-5.77,5.77-5.77,5.77,2.58,5.77,5.77Z"></path>
  <path class="cls-5" d="M635.85,287.84c0,3.18-2.58,5.77-5.77,5.77s-5.77-2.58-5.77-5.77,2.58-5.77,5.77-5.77,5.77,2.58,5.77,5.77Z"></path>
  <path class="cls-5" d="M649.14,301.71c0,3.18-2.58,5.77-5.77,5.77s-5.77-2.58-5.77-5.77,2.58-5.77,5.77-5.77,5.77,2.58,5.77,5.77Z"></path>
  <path class="cls-5" d="M662.54,287.84c0,3.18-2.58,5.77-5.76,5.77s-5.77-2.58-5.77-5.77,2.58-5.77,5.77-5.77,5.76,2.58,5.76,5.77Z"></path>
  <path class="cls-5" d="M434.61,276.31c0,3.18-2.58,5.77-5.77,5.77s-5.77-2.58-5.77-5.77,2.58-5.77,5.77-5.77,5.77,2.58,5.77,5.77Z"></path>
  <path class="cls-5" d="M541.97,276.31c0,3.18-2.58,5.77-5.77,5.77s-5.77-2.58-5.77-5.77,2.58-5.77,5.77-5.77,5.77,2.58,5.77,5.77Z"></path>
  <path class="cls-5" d="M568.79,276.31c0,3.18-2.58,5.77-5.77,5.77s-5.77-2.58-5.77-5.77,2.58-5.77,5.77-5.77,5.77,2.58,5.77,5.77Z"></path>
  <path class="cls-5" d="M595.52,276.31c0,3.18-2.58,5.77-5.77,5.77s-5.77-2.58-5.77-5.77,2.58-5.77,5.77-5.77,5.77,2.58,5.77,5.77Z"></path>
  <path class="cls-5" d="M635.85,262.44c0,3.18-2.58,5.77-5.77,5.77s-5.77-2.58-5.77-5.77,2.58-5.77,5.77-5.77,5.77,2.58,5.77,5.77Z"></path>
  <path class="cls-5" d="M649.14,276.31c0,3.18-2.58,5.77-5.77,5.77s-5.77-2.58-5.77-5.77,2.58-5.77,5.77-5.77,5.77,2.58,5.77,5.77Z"></path>
  <path class="cls-5" d="M622.37,276.31c0,3.18-2.58,5.77-5.77,5.77s-5.77-2.58-5.77-5.77,2.58-5.77,5.77-5.77,5.77,2.58,5.77,5.77Z"></path>
  <path class="cls-5" d="M448.08,237.05c0,3.18-2.58,5.77-5.77,5.77s-5.77-2.58-5.77-5.77,2.58-5.77,5.77-5.77,5.77,2.58,5.77,5.77Z"></path>
  <path class="cls-5" d="M474.88,237.05c0,3.18-2.58,5.77-5.77,5.77s-5.77-2.58-5.77-5.77,2.58-5.77,5.77-5.77,5.77,2.58,5.77,5.77Z"></path>
  <path class="cls-5" d="M555.47,237.05c0,3.18-2.58,5.77-5.77,5.77s-5.77-2.58-5.77-5.77,2.58-5.77,5.77-5.77,5.77,2.58,5.77,5.77Z"></path>
  <path class="cls-5" d="M582.31,237.05c0,3.18-2.58,5.77-5.77,5.77s-5.77-2.58-5.77-5.77,2.58-5.77,5.77-5.77,5.77,2.58,5.77,5.77Z"></path>
  <path class="cls-5" d="M461.42,250.91c0,3.18-2.58,5.77-5.77,5.77s-5.77-2.58-5.77-5.77,2.58-5.77,5.77-5.77,5.77,2.58,5.77,5.77Z"></path>
  <path class="cls-5" d="M488.25,250.91c0,3.18-2.58,5.77-5.77,5.77s-5.77-2.58-5.77-5.77,2.58-5.77,5.77-5.77,5.77,2.58,5.77,5.77Z"></path>
  <path class="cls-5" d="M515.11,250.91c0,3.18-2.58,5.77-5.77,5.77s-5.77-2.58-5.77-5.77,2.58-5.77,5.77-5.77,5.77,2.58,5.77,5.77Z"></path>
  <path class="cls-5" d="M541.97,250.91c0,3.18-2.58,5.77-5.77,5.77s-5.77-2.58-5.77-5.77,2.58-5.77,5.77-5.77,5.77,2.58,5.77,5.77Z"></path>
  <path class="cls-5" d="M568.79,250.91c0,3.18-2.58,5.77-5.77,5.77s-5.77-2.58-5.77-5.77,2.58-5.77,5.77-5.77,5.77,2.58,5.77,5.77Z"></path>
  <path class="cls-5" d="M609.08,237.05c0,3.18-2.58,5.77-5.77,5.77s-5.77-2.58-5.77-5.77,2.58-5.77,5.77-5.77,5.77,2.58,5.77,5.77Z"></path>
  <path class="cls-5" d="M622.37,250.91c0,3.18-2.58,5.77-5.77,5.77s-5.77-2.58-5.77-5.77,2.58-5.77,5.77-5.77,5.77,2.58,5.77,5.77Z"></path>
  <path class="cls-5" d="M448.08,211.65c0,3.18-2.58,5.77-5.77,5.77s-5.77-2.58-5.77-5.77,2.58-5.77,5.77-5.77,5.77,2.58,5.77,5.77Z"></path>
  <path class="cls-5" d="M474.88,211.65c0,3.18-2.58,5.77-5.77,5.77s-5.77-2.58-5.77-5.77,2.58-5.77,5.77-5.77,5.77,2.58,5.77,5.77Z"></path>
  <path class="cls-5" d="M501.74,211.65c0,3.18-2.58,5.77-5.77,5.77s-5.77-2.58-5.77-5.77,2.58-5.77,5.77-5.77,5.77,2.58,5.77,5.77Z"></path>
  <path class="cls-5" d="M555.47,211.65c0,3.18-2.58,5.77-5.77,5.77s-5.77-2.58-5.77-5.77,2.58-5.77,5.77-5.77,5.77,2.58,5.77,5.77Z"></path>
  <path class="cls-5" d="M582.31,211.65c0,3.18-2.58,5.77-5.77,5.77s-5.77-2.58-5.77-5.77,2.58-5.77,5.77-5.77,5.77,2.58,5.77,5.77Z"></path>
  <path class="cls-5" d="M461.42,225.51c0,3.18-2.58,5.77-5.77,5.77s-5.77-2.58-5.77-5.77,2.58-5.77,5.77-5.77,5.77,2.58,5.77,5.77Z"></path>
  <path class="cls-5" d="M515.11,225.51c0,3.18-2.58,5.77-5.77,5.77s-5.77-2.58-5.77-5.77,2.58-5.77,5.77-5.77,5.77,2.58,5.77,5.77Z"></path>
  <path class="cls-5" d="M568.79,225.51c0,3.18-2.58,5.77-5.77,5.77s-5.77-2.58-5.77-5.77,2.58-5.77,5.77-5.77,5.77,2.58,5.77,5.77Z"></path>
  <path class="cls-5" d="M595.52,225.51c0,3.18-2.58,5.77-5.77,5.77s-5.77-2.58-5.77-5.77,2.58-5.77,5.77-5.77,5.77,2.58,5.77,5.77Z"></path>
  <path class="cls-5" d="M474.88,186.25c0,3.18-2.58,5.77-5.77,5.77s-5.77-2.58-5.77-5.77,2.58-5.77,5.77-5.77,5.77,2.58,5.77,5.77Z"></path>
  <path class="cls-5" d="M461.42,200.12c0,3.18-2.58,5.77-5.77,5.77s-5.77-2.58-5.77-5.77,2.58-5.77,5.77-5.77,5.77,2.58,5.77,5.77Z"></path>
  <path class="cls-5" d="M488.25,200.12c0,3.18-2.58,5.77-5.77,5.77s-5.77-2.58-5.77-5.77,2.58-5.77,5.77-5.77,5.77,2.58,5.77,5.77Z"></path>
  <path class="cls-5" d="M541.97,200.12c0,3.18-2.58,5.77-5.77,5.77s-5.77-2.58-5.77-5.77,2.58-5.77,5.77-5.77,5.77,2.58,5.77,5.77Z"></path>
  <path class="cls-5" d="M568.79,200.12c0,3.18-2.58,5.77-5.77,5.77s-5.77-2.58-5.77-5.77,2.58-5.77,5.77-5.77,5.77,2.58,5.77,5.77Z"></path>
  <circle class="cls-5" cx="603.32" cy="186.25" r="5.77" transform="translate(343.67 761.8) rotate(-82.87)"></circle>
  <path class="cls-5" d="M635.85,186.25c0,3.18-2.58,5.77-5.77,5.77s-5.77-2.58-5.77-5.77,2.58-5.77,5.77-5.77,5.77,2.58,5.77,5.77Z"></path>
  <path class="cls-5" d="M622.37,200.12c0,3.18-2.58,5.77-5.77,5.77s-5.77-2.58-5.77-5.77,2.58-5.77,5.77-5.77,5.77,2.58,5.77,5.77Z"></path>
  <path class="cls-5" d="M568.79,149.32c0,3.18-2.58,5.77-5.77,5.77s-5.77-2.58-5.77-5.77,2.58-5.77,5.77-5.77,5.77,2.58,5.77,5.77Z"></path>
  <path class="cls-4" d="M367.5,592.63c0,3.18-2.58,5.77-5.77,5.77s-5.77-2.58-5.77-5.77,2.58-5.77,5.77-5.77,5.77,2.58,5.77,5.77Z"></path>
  <path class="cls-4" d="M394.38,592.63c0,3.18-2.58,5.77-5.77,5.77s-5.77-2.58-5.77-5.77,2.58-5.77,5.77-5.77,5.77,2.58,5.77,5.77Z"></path>
  <path class="cls-4" d="M421.23,592.63c0,3.18-2.58,5.77-5.77,5.77s-5.77-2.58-5.77-5.77,2.58-5.77,5.77-5.77,5.77,2.58,5.77,5.77Z"></path>
  <path class="cls-4" d="M394.38,567.23c0,3.18-2.58,5.76-5.77,5.76s-5.77-2.58-5.77-5.76,2.58-5.77,5.77-5.77,5.77,2.58,5.77,5.77Z"></path>
  <path class="cls-4" d="M421.23,567.23c0,3.18-2.58,5.76-5.77,5.76s-5.77-2.58-5.77-5.76,2.58-5.77,5.77-5.77,5.77,2.58,5.77,5.77Z"></path>
  <path class="cls-4" d="M407.72,581.1c0,3.18-2.58,5.76-5.77,5.76s-5.77-2.58-5.77-5.76,2.58-5.77,5.77-5.77,5.77,2.58,5.77,5.77Z"></path>
  <path class="cls-4" d="M448.08,541.83c0,3.18-2.58,5.77-5.77,5.77s-5.77-2.58-5.77-5.77,2.58-5.77,5.77-5.77,5.77,2.58,5.77,5.77Z"></path>
  <path class="cls-4" d="M501.74,541.83c0,3.18-2.58,5.77-5.77,5.77s-5.77-2.58-5.77-5.77,2.58-5.77,5.77-5.77,5.77,2.58,5.77,5.77Z"></path>
  <path class="cls-4" d="M528.59,541.83c0,3.18-2.58,5.77-5.77,5.77s-5.77-2.58-5.77-5.77,2.58-5.77,5.77-5.77,5.77,2.58,5.77,5.77Z"></path>
  <path class="cls-4" d="M555.47,541.83c0,3.18-2.58,5.77-5.77,5.77s-5.77-2.58-5.77-5.77,2.58-5.77,5.77-5.77,5.77,2.58,5.77,5.77Z"></path>
  <path class="cls-4" d="M582.31,541.83c0,3.18-2.58,5.77-5.77,5.77s-5.77-2.58-5.77-5.77,2.58-5.77,5.77-5.77,5.77,2.58,5.77,5.77Z"></path>
  <path class="cls-4" d="M354.08,555.7c0,3.18-2.58,5.77-5.77,5.77s-5.77-2.58-5.77-5.77,2.58-5.77,5.77-5.77,5.77,2.58,5.77,5.77Z"></path>
  <path class="cls-4" d="M434.61,555.7c0,3.18-2.58,5.77-5.77,5.77s-5.77-2.58-5.77-5.77,2.58-5.77,5.77-5.77,5.77,2.58,5.77,5.77Z"></path>
  <path class="cls-4" d="M461.42,555.7c0,3.18-2.58,5.77-5.77,5.77s-5.77-2.58-5.77-5.77,2.58-5.77,5.77-5.77,5.77,2.58,5.77,5.77Z"></path>
  <path class="cls-4" d="M541.97,555.7c0,3.18-2.58,5.77-5.77,5.77s-5.77-2.58-5.77-5.77,2.58-5.77,5.77-5.77,5.77,2.58,5.77,5.77Z"></path>
  <circle class="cls-4" cx="603.32" cy="541.83" r="5.77" transform="translate(5.4 1089.61) rotate(-84.42)"></circle>
  <path class="cls-4" d="M474.88,516.43c0,3.18-2.58,5.77-5.77,5.77s-5.77-2.58-5.77-5.77,2.58-5.77,5.77-5.77,5.77,2.58,5.77,5.77Z"></path>
  <path class="cls-4" d="M528.59,516.43c0,3.18-2.58,5.77-5.77,5.77s-5.77-2.58-5.77-5.77,2.58-5.77,5.77-5.77,5.77,2.58,5.77,5.77Z"></path>
  <path class="cls-4" d="M555.47,516.43c0,3.18-2.58,5.77-5.77,5.77s-5.77-2.58-5.77-5.77,2.58-5.77,5.77-5.77,5.77,2.58,5.77,5.77Z"></path>
  <path class="cls-4" d="M582.31,516.43c0,3.18-2.58,5.77-5.77,5.77s-5.77-2.58-5.77-5.77,2.58-5.77,5.77-5.77,5.77,2.58,5.77,5.77Z"></path>
  <path class="cls-4" d="M407.72,530.3c0,3.18-2.58,5.77-5.77,5.77s-5.77-2.58-5.77-5.77,2.58-5.76,5.77-5.76,5.77,2.58,5.77,5.76Z"></path>
  <path class="cls-4" d="M434.61,530.3c0,3.18-2.58,5.77-5.77,5.77s-5.77-2.58-5.77-5.77,2.58-5.76,5.77-5.76,5.77,2.58,5.77,5.76Z"></path>
  <path class="cls-4" d="M461.42,530.3c0,3.18-2.58,5.77-5.77,5.77s-5.77-2.58-5.77-5.77,2.58-5.76,5.77-5.76,5.77,2.58,5.77,5.76Z"></path>
  <path class="cls-4" d="M488.25,530.3c0,3.18-2.58,5.77-5.77,5.77s-5.77-2.58-5.77-5.77,2.58-5.76,5.77-5.76,5.77,2.58,5.77,5.76Z"></path>
  <path class="cls-4" d="M515.11,530.3c0,3.18-2.58,5.77-5.77,5.77s-5.77-2.58-5.77-5.77,2.58-5.76,5.77-5.76,5.77,2.58,5.77,5.76Z"></path>
  <path class="cls-4" d="M340.72,491.03c0,3.18-2.58,5.76-5.77,5.76s-5.77-2.58-5.77-5.76,2.58-5.77,5.77-5.77,5.77,2.58,5.77,5.77Z"></path>
  <path class="cls-4" d="M421.23,491.03c0,3.18-2.58,5.76-5.77,5.76s-5.77-2.58-5.77-5.76,2.58-5.77,5.77-5.77,5.77,2.58,5.77,5.77Z"></path>
  <path class="cls-4" d="M474.88,491.03c0,3.18-2.58,5.76-5.77,5.76s-5.77-2.58-5.77-5.76,2.58-5.77,5.77-5.77,5.77,2.58,5.77,5.77Z"></path>
  <path class="cls-4" d="M407.72,504.9c0,3.18-2.58,5.76-5.77,5.76s-5.77-2.58-5.77-5.76,2.58-5.77,5.77-5.77,5.77,2.58,5.77,5.77Z"></path>
  <path class="cls-4" d="M434.61,504.9c0,3.18-2.58,5.76-5.77,5.76s-5.77-2.58-5.77-5.76,2.58-5.77,5.77-5.77,5.77,2.58,5.77,5.77Z"></path>
  <path class="cls-4" d="M541.97,504.9c0,3.18-2.58,5.76-5.77,5.76s-5.77-2.58-5.77-5.76,2.58-5.77,5.77-5.77,5.77,2.58,5.77,5.77Z"></path>
  <path class="cls-4" d="M340.72,465.63c0,3.18-2.58,5.77-5.77,5.77s-5.77-2.58-5.77-5.77,2.58-5.77,5.77-5.77,5.77,2.58,5.77,5.77Z"></path>
  <path class="cls-4" d="M421.23,465.63c0,3.18-2.58,5.77-5.77,5.77s-5.77-2.58-5.77-5.77,2.58-5.77,5.77-5.77,5.77,2.58,5.77,5.77Z"></path>
  <path class="cls-4" d="M448.08,465.63c0,3.18-2.58,5.77-5.77,5.77s-5.77-2.58-5.77-5.77,2.58-5.77,5.77-5.77,5.77,2.58,5.77,5.77Z"></path>
  <path class="cls-4" d="M380.91,479.5c0,3.18-2.58,5.77-5.77,5.77s-5.77-2.58-5.77-5.77,2.58-5.77,5.77-5.77,5.77,2.58,5.77,5.77Z"></path>
  <path class="cls-4" d="M407.72,479.5c0,3.18-2.58,5.77-5.77,5.77s-5.77-2.58-5.77-5.77,2.58-5.77,5.77-5.77,5.77,2.58,5.77,5.77Z"></path>
  <path class="cls-4" d="M515.11,479.5c0,3.18-2.58,5.77-5.77,5.77s-5.77-2.58-5.77-5.77,2.58-5.77,5.77-5.77,5.77,2.58,5.77,5.77Z"></path>
  <path class="cls-4" d="M313.89,440.24c0,3.18-2.58,5.77-5.77,5.77s-5.77-2.58-5.77-5.77,2.58-5.77,5.77-5.77,5.77,2.58,5.77,5.77Z"></path>
  <path class="cls-4" d="M367.5,440.24c0,3.18-2.58,5.77-5.77,5.77s-5.77-2.58-5.77-5.77,2.58-5.77,5.77-5.77,5.77,2.58,5.77,5.77Z"></path>
  <path class="cls-4" d="M448.08,440.24c0,3.18-2.58,5.77-5.77,5.77s-5.77-2.58-5.77-5.77,2.58-5.77,5.77-5.77,5.77,2.58,5.77,5.77Z"></path>
  <path class="cls-4" d="M474.88,440.24c0,3.18-2.58,5.77-5.77,5.77s-5.77-2.58-5.77-5.77,2.58-5.77,5.77-5.77,5.77,2.58,5.77,5.77Z"></path>
  <path class="cls-4" d="M354.08,454.1c0,3.18-2.58,5.77-5.77,5.77s-5.77-2.58-5.77-5.77,2.58-5.77,5.77-5.77,5.77,2.58,5.77,5.77Z"></path>
  <path class="cls-4" d="M380.91,454.1c0,3.18-2.58,5.77-5.77,5.77s-5.77-2.58-5.77-5.77,2.58-5.77,5.77-5.77,5.77,2.58,5.77,5.77Z"></path>
  <path class="cls-4" d="M434.61,454.1c0,3.18-2.58,5.77-5.77,5.77s-5.77-2.58-5.77-5.77,2.58-5.77,5.77-5.77,5.77,2.58,5.77,5.77Z"></path>
  <path class="cls-4" d="M461.42,454.1c0,3.18-2.58,5.77-5.77,5.77s-5.77-2.58-5.77-5.77,2.58-5.77,5.77-5.77,5.77,2.58,5.77,5.77Z"></path>
  <path class="cls-4" d="M488.25,454.1c0,3.18-2.58,5.77-5.77,5.77s-5.77-2.58-5.77-5.77,2.58-5.77,5.77-5.77,5.77,2.58,5.77,5.77Z"></path>
  <path class="cls-4" d="M394.38,414.84c0,3.18-2.58,5.77-5.77,5.77s-5.77-2.58-5.77-5.77,2.58-5.77,5.77-5.77,5.77,2.58,5.77,5.77Z"></path>
  <path class="cls-4" d="M474.88,414.84c0,3.18-2.58,5.77-5.77,5.77s-5.77-2.58-5.77-5.77,2.58-5.77,5.77-5.77,5.77,2.58,5.77,5.77Z"></path>
  <path class="cls-4" d="M300.4,428.7c0,3.18-2.58,5.77-5.77,5.77s-5.77-2.58-5.77-5.77,2.58-5.76,5.77-5.76,5.77,2.58,5.77,5.76Z"></path>
  <path class="cls-4" d="M380.91,428.7c0,3.18-2.58,5.77-5.77,5.77s-5.77-2.58-5.77-5.77,2.58-5.76,5.77-5.76,5.77,2.58,5.77,5.76Z"></path>
  <path class="cls-4" d="M461.42,428.7c0,3.18-2.58,5.77-5.77,5.77s-5.77-2.58-5.77-5.77,2.58-5.76,5.77-5.76,5.77,2.58,5.77,5.76Z"></path>
  <path class="cls-4" d="M488.25,428.7c0,3.18-2.58,5.77-5.77,5.77s-5.77-2.58-5.77-5.77,2.58-5.76,5.77-5.76,5.77,2.58,5.77,5.76Z"></path>
  <path class="cls-4" d="M515.11,428.7c0,3.18-2.58,5.77-5.77,5.77s-5.77-2.58-5.77-5.77,2.58-5.76,5.77-5.76,5.77,2.58,5.77,5.76Z"></path>
  <path class="cls-4" d="M541.97,428.7c0,3.18-2.58,5.77-5.77,5.77s-5.77-2.58-5.77-5.77,2.58-5.76,5.77-5.76,5.77,2.58,5.77,5.76Z"></path>
  <path class="cls-4" d="M340.72,389.44c0,3.18-2.58,5.77-5.77,5.77s-5.77-2.58-5.77-5.77,2.58-5.77,5.77-5.77,5.77,2.58,5.77,5.77Z"></path>
  <path class="cls-4" d="M367.5,389.44c0,3.18-2.58,5.77-5.77,5.77s-5.77-2.58-5.77-5.77,2.58-5.77,5.77-5.77,5.77,2.58,5.77,5.77Z"></path>
  <path class="cls-4" d="M394.38,389.44c0,3.18-2.58,5.77-5.77,5.77s-5.77-2.58-5.77-5.77,2.58-5.77,5.77-5.77,5.77,2.58,5.77,5.77Z"></path>
  <path class="cls-4" d="M421.23,389.44c0,3.18-2.58,5.77-5.77,5.77s-5.77-2.58-5.77-5.77,2.58-5.77,5.77-5.77,5.77,2.58,5.77,5.77Z"></path>
  <path class="cls-4" d="M448.08,389.44c0,3.18-2.58,5.77-5.77,5.77s-5.77-2.58-5.77-5.77,2.58-5.77,5.77-5.77,5.77,2.58,5.77,5.77Z"></path>
  <path class="cls-4" d="M407.72,403.31c0,3.18-2.58,5.77-5.77,5.77s-5.77-2.58-5.77-5.77,2.58-5.77,5.77-5.77,5.77,2.58,5.77,5.77Z"></path>
  <path class="cls-4" d="M461.42,403.31c0,3.18-2.58,5.77-5.77,5.77s-5.77-2.58-5.77-5.77,2.58-5.77,5.77-5.77,5.77,2.58,5.77,5.77Z"></path>
  <path class="cls-4" d="M609.08,389.44c0,3.18-2.58,5.77-5.77,5.77s-5.77-2.58-5.77-5.77,2.58-5.77,5.77-5.77,5.77,2.58,5.77,5.77Z"></path>
  <path class="cls-4" d="M595.52,403.31c0,3.18-2.58,5.77-5.77,5.77s-5.77-2.58-5.77-5.77,2.58-5.77,5.77-5.77,5.77,2.58,5.77,5.77Z"></path>
  <path class="cls-4" d="M313.89,364.04c0,3.18-2.58,5.77-5.77,5.77s-5.77-2.58-5.77-5.77,2.58-5.77,5.77-5.77,5.77,2.58,5.77,5.77Z"></path>
  <path class="cls-4" d="M340.72,364.04c0,3.18-2.58,5.77-5.77,5.77s-5.77-2.58-5.77-5.77,2.58-5.77,5.77-5.77,5.77,2.58,5.77,5.77Z"></path>
  <path class="cls-4" d="M421.23,364.04c0,3.18-2.58,5.77-5.77,5.77s-5.77-2.58-5.77-5.77,2.58-5.77,5.77-5.77,5.77,2.58,5.77,5.77Z"></path>
  <path class="cls-4" d="M448.08,364.04c0,3.18-2.58,5.77-5.77,5.77s-5.77-2.58-5.77-5.77,2.58-5.77,5.77-5.77,5.77,2.58,5.77,5.77Z"></path>
  <path class="cls-4" d="M474.88,364.04c0,3.18-2.58,5.77-5.77,5.77s-5.77-2.58-5.77-5.77,2.58-5.77,5.77-5.77,5.77,2.58,5.77,5.77Z"></path>
  <path class="cls-4" d="M501.74,364.04c0,3.18-2.58,5.77-5.77,5.77s-5.77-2.58-5.77-5.77,2.58-5.77,5.77-5.77,5.77,2.58,5.77,5.77Z"></path>
  <path class="cls-4" d="M555.47,364.04c0,3.18-2.58,5.77-5.77,5.77s-5.77-2.58-5.77-5.77,2.58-5.77,5.77-5.77,5.77,2.58,5.77,5.77Z"></path>
  <path class="cls-4" d="M582.31,364.04c0,3.18-2.58,5.77-5.77,5.77s-5.77-2.58-5.77-5.77,2.58-5.77,5.77-5.77,5.77,2.58,5.77,5.77Z"></path>
  <path class="cls-4" d="M327.26,377.91c0,3.18-2.58,5.77-5.77,5.77s-5.77-2.58-5.77-5.77,2.58-5.77,5.77-5.77,5.77,2.58,5.77,5.77Z"></path>
  <path class="cls-4" d="M354.08,377.91c0,3.18-2.58,5.77-5.77,5.77s-5.77-2.58-5.77-5.77,2.58-5.77,5.77-5.77,5.77,2.58,5.77,5.77Z"></path>
  <path class="cls-4" d="M407.72,377.91c0,3.18-2.58,5.77-5.77,5.77s-5.77-2.58-5.77-5.77,2.58-5.77,5.77-5.77,5.77,2.58,5.77,5.77Z"></path>
  <path class="cls-4" d="M488.25,377.91c0,3.18-2.58,5.77-5.77,5.77s-5.77-2.58-5.77-5.77,2.58-5.77,5.77-5.77,5.77,2.58,5.77,5.77Z"></path>
  <path class="cls-4" d="M568.79,377.91c0,3.18-2.58,5.77-5.77,5.77s-5.77-2.58-5.77-5.77,2.58-5.77,5.77-5.77,5.77,2.58,5.77,5.77Z"></path>
  <path class="cls-4" d="M609.08,364.04c0,3.18-2.58,5.77-5.77,5.77s-5.77-2.58-5.77-5.77,2.58-5.77,5.77-5.77,5.77,2.58,5.77,5.77Z"></path>
  <path class="cls-4" d="M635.85,364.04c0,3.18-2.58,5.77-5.77,5.77s-5.77-2.58-5.77-5.77,2.58-5.77,5.77-5.77,5.77,2.58,5.77,5.77Z"></path>
  <path class="cls-4" d="M662.54,364.04c0,3.18-2.58,5.77-5.76,5.77s-5.77-2.58-5.77-5.77,2.58-5.77,5.77-5.77,5.76,2.58,5.76,5.77Z"></path>
  <path class="cls-4" d="M313.89,338.64c0,3.18-2.58,5.77-5.77,5.77s-5.77-2.58-5.77-5.77,2.58-5.77,5.77-5.77,5.77,2.58,5.77,5.77Z"></path>
  <path class="cls-4" d="M340.72,338.64c0,3.18-2.58,5.77-5.77,5.77s-5.77-2.58-5.77-5.77,2.58-5.77,5.77-5.77,5.77,2.58,5.77,5.77Z"></path>
  <path class="cls-4" d="M421.23,338.64c0,3.18-2.58,5.77-5.77,5.77s-5.77-2.58-5.77-5.77,2.58-5.77,5.77-5.77,5.77,2.58,5.77,5.77Z"></path>
  <path class="cls-4" d="M474.88,338.64c0,3.18-2.58,5.77-5.77,5.77s-5.77-2.58-5.77-5.77,2.58-5.77,5.77-5.77,5.77,2.58,5.77,5.77Z"></path>
  <path class="cls-4" d="M501.74,338.64c0,3.18-2.58,5.77-5.77,5.77s-5.77-2.58-5.77-5.77,2.58-5.77,5.77-5.77,5.77,2.58,5.77,5.77Z"></path>
  <path class="cls-4" d="M528.59,338.64c0,3.18-2.58,5.77-5.77,5.77s-5.77-2.58-5.77-5.77,2.58-5.77,5.77-5.77,5.77,2.58,5.77,5.77Z"></path>
  <path class="cls-4" d="M555.47,338.64c0,3.18-2.58,5.77-5.77,5.77s-5.77-2.58-5.77-5.77,2.58-5.77,5.77-5.77,5.77,2.58,5.77,5.77Z"></path>
  <path class="cls-4" d="M582.31,338.64c0,3.18-2.58,5.77-5.77,5.77s-5.77-2.58-5.77-5.77,2.58-5.77,5.77-5.77,5.77,2.58,5.77,5.77Z"></path>
  <path class="cls-4" d="M300.4,352.51c0,3.18-2.58,5.77-5.77,5.77s-5.77-2.58-5.77-5.77,2.58-5.77,5.77-5.77,5.77,2.58,5.77,5.77Z"></path>
  <path class="cls-4" d="M327.26,352.51c0,3.18-2.58,5.77-5.77,5.77s-5.77-2.58-5.77-5.77,2.58-5.77,5.77-5.77,5.77,2.58,5.77,5.77Z"></path>
  <path class="cls-4" d="M461.42,352.51c0,3.18-2.58,5.77-5.77,5.77s-5.77-2.58-5.77-5.77,2.58-5.77,5.77-5.77,5.77,2.58,5.77,5.77Z"></path>
  <path class="cls-4" d="M488.25,352.51c0,3.18-2.58,5.77-5.77,5.77s-5.77-2.58-5.77-5.77,2.58-5.77,5.77-5.77,5.77,2.58,5.77,5.77Z"></path>
  <path class="cls-4" d="M515.11,352.51c0,3.18-2.58,5.77-5.77,5.77s-5.77-2.58-5.77-5.77,2.58-5.77,5.77-5.77,5.77,2.58,5.77,5.77Z"></path>
  <path class="cls-4" d="M541.97,352.51c0,3.18-2.58,5.77-5.77,5.77s-5.77-2.58-5.77-5.77,2.58-5.77,5.77-5.77,5.77,2.58,5.77,5.77Z"></path>
  <path class="cls-4" d="M568.79,352.51c0,3.18-2.58,5.77-5.77,5.77s-5.77-2.58-5.77-5.77,2.58-5.77,5.77-5.77,5.77,2.58,5.77,5.77Z"></path>
  <path class="cls-4" d="M595.52,352.51c0,3.18-2.58,5.77-5.77,5.77s-5.77-2.58-5.77-5.77,2.58-5.77,5.77-5.77,5.77,2.58,5.77,5.77Z"></path>
  <path class="cls-4" d="M649.14,352.51c0,3.18-2.58,5.77-5.77,5.77s-5.77-2.58-5.77-5.77,2.58-5.77,5.77-5.77,5.77,2.58,5.77,5.77Z"></path>
  <path class="cls-4" d="M622.37,352.51c0,3.18-2.58,5.77-5.77,5.77s-5.77-2.58-5.77-5.77,2.58-5.77,5.77-5.77,5.77,2.58,5.77,5.77Z"></path>
  <path class="cls-4" d="M313.89,313.24c0,3.18-2.58,5.77-5.77,5.77s-5.77-2.58-5.77-5.77,2.58-5.77,5.77-5.77,5.77,2.58,5.77,5.77Z"></path>
  <path class="cls-4" d="M367.5,313.24c0,3.18-2.58,5.77-5.77,5.77s-5.77-2.58-5.77-5.77,2.58-5.77,5.77-5.77,5.77,2.58,5.77,5.77Z"></path>
  <path class="cls-4" d="M394.38,313.24c0,3.18-2.58,5.77-5.77,5.77s-5.77-2.58-5.77-5.77,2.58-5.77,5.77-5.77,5.77,2.58,5.77,5.77Z"></path>
  <path class="cls-4" d="M421.23,313.24c0,3.18-2.58,5.77-5.77,5.77s-5.77-2.58-5.77-5.77,2.58-5.77,5.77-5.77,5.77,2.58,5.77,5.77Z"></path>
  <path class="cls-4" d="M448.08,313.24c0,3.18-2.58,5.77-5.77,5.77s-5.77-2.58-5.77-5.77,2.58-5.77,5.77-5.77,5.77,2.58,5.77,5.77Z"></path>
  <path class="cls-4" d="M501.74,313.24c0,3.18-2.58,5.77-5.77,5.77s-5.77-2.58-5.77-5.77,2.58-5.77,5.77-5.77,5.77,2.58,5.77,5.77Z"></path>
  <path class="cls-4" d="M528.59,313.24c0,3.18-2.58,5.77-5.77,5.77s-5.77-2.58-5.77-5.77,2.58-5.77,5.77-5.77,5.77,2.58,5.77,5.77Z"></path>
  <path class="cls-4" d="M327.26,327.11c0,3.18-2.58,5.77-5.77,5.77s-5.77-2.58-5.77-5.77,2.58-5.77,5.77-5.77,5.77,2.58,5.77,5.77Z"></path>
  <path class="cls-4" d="M354.08,327.11c0,3.18-2.58,5.77-5.77,5.77s-5.77-2.58-5.77-5.77,2.58-5.77,5.77-5.77,5.77,2.58,5.77,5.77Z"></path>
  <path class="cls-4" d="M461.42,327.11c0,3.18-2.58,5.77-5.77,5.77s-5.77-2.58-5.77-5.77,2.58-5.77,5.77-5.77,5.77,2.58,5.77,5.77Z"></path>
  <path class="cls-4" d="M541.97,327.11c0,3.18-2.58,5.77-5.77,5.77s-5.77-2.58-5.77-5.77,2.58-5.77,5.77-5.77,5.77,2.58,5.77,5.77Z"></path>
  <path class="cls-4" d="M609.08,313.24c0,3.18-2.58,5.77-5.77,5.77s-5.77-2.58-5.77-5.77,2.58-5.77,5.77-5.77,5.77,2.58,5.77,5.77Z"></path>
  <path class="cls-4" d="M340.72,287.84c0,3.18-2.58,5.77-5.77,5.77s-5.77-2.58-5.77-5.77,2.58-5.77,5.77-5.77,5.77,2.58,5.77,5.77Z"></path>
  <path class="cls-4" d="M367.5,287.84c0,3.18-2.58,5.77-5.77,5.77s-5.77-2.58-5.77-5.77,2.58-5.77,5.77-5.77,5.77,2.58,5.77,5.77Z"></path>
  <path class="cls-4" d="M421.23,287.84c0,3.18-2.58,5.77-5.77,5.77s-5.77-2.58-5.77-5.77,2.58-5.77,5.77-5.77,5.77,2.58,5.77,5.77Z"></path>
  <path class="cls-4" d="M448.08,287.84c0,3.18-2.58,5.77-5.77,5.77s-5.77-2.58-5.77-5.77,2.58-5.77,5.77-5.77,5.77,2.58,5.77,5.77Z"></path>
  <path class="cls-4" d="M474.88,287.84c0,3.18-2.58,5.77-5.77,5.77s-5.77-2.58-5.77-5.77,2.58-5.77,5.77-5.77,5.77,2.58,5.77,5.77Z"></path>
  <path class="cls-4" d="M501.74,287.84c0,3.18-2.58,5.77-5.77,5.77s-5.77-2.58-5.77-5.77,2.58-5.77,5.77-5.77,5.77,2.58,5.77,5.77Z"></path>
  <path class="cls-4" d="M528.59,287.84c0,3.18-2.58,5.77-5.77,5.77s-5.77-2.58-5.77-5.77,2.58-5.77,5.77-5.77,5.77,2.58,5.77,5.77Z"></path>
  <path class="cls-4" d="M300.4,301.71c0,3.18-2.58,5.77-5.77,5.77s-5.77-2.58-5.77-5.77,2.58-5.77,5.77-5.77,5.77,2.58,5.77,5.77Z"></path>
  <path class="cls-4" d="M327.26,301.71c0,3.18-2.58,5.77-5.77,5.77s-5.77-2.58-5.77-5.77,2.58-5.77,5.77-5.77,5.77,2.58,5.77,5.77Z"></path>
  <path class="cls-4" d="M354.08,301.71c0,3.18-2.58,5.77-5.77,5.77s-5.77-2.58-5.77-5.77,2.58-5.77,5.77-5.77,5.77,2.58,5.77,5.77Z"></path>
  <path class="cls-4" d="M380.91,301.71c0,3.18-2.58,5.77-5.77,5.77s-5.77-2.58-5.77-5.77,2.58-5.77,5.77-5.77,5.77,2.58,5.77,5.77Z"></path>
  <path class="cls-4" d="M434.61,301.71c0,3.18-2.58,5.77-5.77,5.77s-5.77-2.58-5.77-5.77,2.58-5.77,5.77-5.77,5.77,2.58,5.77,5.77Z"></path>
  <path class="cls-4" d="M488.25,301.71c0,3.18-2.58,5.77-5.77,5.77s-5.77-2.58-5.77-5.77,2.58-5.77,5.77-5.77,5.77,2.58,5.77,5.77Z"></path>
  <path class="cls-4" d="M515.11,301.71c0,3.18-2.58,5.77-5.77,5.77s-5.77-2.58-5.77-5.77,2.58-5.77,5.77-5.77,5.77,2.58,5.77,5.77Z"></path>
  <path class="cls-4" d="M568.79,301.71c0,3.18-2.58,5.77-5.77,5.77s-5.77-2.58-5.77-5.77,2.58-5.77,5.77-5.77,5.77,2.58,5.77,5.77Z"></path>
  <path class="cls-4" d="M622.37,301.71c0,3.18-2.58,5.77-5.77,5.77s-5.77-2.58-5.77-5.77,2.58-5.77,5.77-5.77,5.77,2.58,5.77,5.77Z"></path>
  <path class="cls-4" d="M340.72,262.44c0,3.18-2.58,5.77-5.77,5.77s-5.77-2.58-5.77-5.77,2.58-5.77,5.77-5.77,5.77,2.58,5.77,5.77Z"></path>
  <path class="cls-4" d="M367.5,262.44c0,3.18-2.58,5.77-5.77,5.77s-5.77-2.58-5.77-5.77,2.58-5.77,5.77-5.77,5.77,2.58,5.77,5.77Z"></path>
  <path class="cls-4" d="M394.38,262.44c0,3.18-2.58,5.77-5.77,5.77s-5.77-2.58-5.77-5.77,2.58-5.77,5.77-5.77,5.77,2.58,5.77,5.77Z"></path>
  <path class="cls-4" d="M421.23,262.44c0,3.18-2.58,5.77-5.77,5.77s-5.77-2.58-5.77-5.77,2.58-5.77,5.77-5.77,5.77,2.58,5.77,5.77Z"></path>
  <path class="cls-4" d="M448.08,262.44c0,3.18-2.58,5.77-5.77,5.77s-5.77-2.58-5.77-5.77,2.58-5.77,5.77-5.77,5.77,2.58,5.77,5.77Z"></path>
  <path class="cls-4" d="M474.88,262.44c0,3.18-2.58,5.77-5.77,5.77s-5.77-2.58-5.77-5.77,2.58-5.77,5.77-5.77,5.77,2.58,5.77,5.77Z"></path>
  <path class="cls-4" d="M501.74,262.44c0,3.18-2.58,5.77-5.77,5.77s-5.77-2.58-5.77-5.77,2.58-5.77,5.77-5.77,5.77,2.58,5.77,5.77Z"></path>
  <path class="cls-4" d="M528.59,262.44c0,3.18-2.58,5.77-5.77,5.77s-5.77-2.58-5.77-5.77,2.58-5.77,5.77-5.77,5.77,2.58,5.77,5.77Z"></path>
  <path class="cls-4" d="M555.47,262.44c0,3.18-2.58,5.77-5.77,5.77s-5.77-2.58-5.77-5.77,2.58-5.77,5.77-5.77,5.77,2.58,5.77,5.77Z"></path>
  <path class="cls-4" d="M582.31,262.44c0,3.18-2.58,5.77-5.77,5.77s-5.77-2.58-5.77-5.77,2.58-5.77,5.77-5.77,5.77,2.58,5.77,5.77Z"></path>
  <path class="cls-4" d="M354.08,276.31c0,3.18-2.58,5.77-5.77,5.77s-5.77-2.58-5.77-5.77,2.58-5.77,5.77-5.77,5.77,2.58,5.77,5.77Z"></path>
  <path class="cls-4" d="M380.91,276.31c0,3.18-2.58,5.77-5.77,5.77s-5.77-2.58-5.77-5.77,2.58-5.77,5.77-5.77,5.77,2.58,5.77,5.77Z"></path>
  <path class="cls-4" d="M407.72,276.31c0,3.18-2.58,5.77-5.77,5.77s-5.77-2.58-5.77-5.77,2.58-5.77,5.77-5.77,5.77,2.58,5.77,5.77Z"></path>
  <path class="cls-4" d="M461.42,276.31c0,3.18-2.58,5.77-5.77,5.77s-5.77-2.58-5.77-5.77,2.58-5.77,5.77-5.77,5.77,2.58,5.77,5.77Z"></path>
  <path class="cls-4" d="M488.25,276.31c0,3.18-2.58,5.77-5.77,5.77s-5.77-2.58-5.77-5.77,2.58-5.77,5.77-5.77,5.77,2.58,5.77,5.77Z"></path>
  <path class="cls-4" d="M515.11,276.31c0,3.18-2.58,5.77-5.77,5.77s-5.77-2.58-5.77-5.77,2.58-5.77,5.77-5.77,5.77,2.58,5.77,5.77Z"></path>
  <path class="cls-4" d="M609.08,262.44c0,3.18-2.58,5.77-5.77,5.77s-5.77-2.58-5.77-5.77,2.58-5.77,5.77-5.77,5.77,2.58,5.77,5.77Z"></path>
  <path class="cls-4" d="M367.5,237.05c0,3.18-2.58,5.77-5.77,5.77s-5.77-2.58-5.77-5.77,2.58-5.77,5.77-5.77,5.77,2.58,5.77,5.77Z"></path>
  <path class="cls-4" d="M394.38,237.05c0,3.18-2.58,5.77-5.77,5.77s-5.77-2.58-5.77-5.77,2.58-5.77,5.77-5.77,5.77,2.58,5.77,5.77Z"></path>
  <path class="cls-4" d="M421.23,237.05c0,3.18-2.58,5.77-5.77,5.77s-5.77-2.58-5.77-5.77,2.58-5.77,5.77-5.77,5.77,2.58,5.77,5.77Z"></path>
  <path class="cls-4" d="M501.74,237.05c0,3.18-2.58,5.77-5.77,5.77s-5.77-2.58-5.77-5.77,2.58-5.77,5.77-5.77,5.77,2.58,5.77,5.77Z"></path>
  <path class="cls-4" d="M528.59,237.05c0,3.18-2.58,5.77-5.77,5.77s-5.77-2.58-5.77-5.77,2.58-5.77,5.77-5.77,5.77,2.58,5.77,5.77Z"></path>
  <path class="cls-4" d="M354.08,250.91c0,3.18-2.58,5.77-5.77,5.77s-5.77-2.58-5.77-5.77,2.58-5.77,5.77-5.77,5.77,2.58,5.77,5.77Z"></path>
  <path class="cls-4" d="M380.91,250.91c0,3.18-2.58,5.77-5.77,5.77s-5.77-2.58-5.77-5.77,2.58-5.77,5.77-5.77,5.77,2.58,5.77,5.77Z"></path>
  <path class="cls-4" d="M407.72,250.91c0,3.18-2.58,5.77-5.77,5.77s-5.77-2.58-5.77-5.77,2.58-5.77,5.77-5.77,5.77,2.58,5.77,5.77Z"></path>
  <path class="cls-4" d="M434.61,250.91c0,3.18-2.58,5.77-5.77,5.77s-5.77-2.58-5.77-5.77,2.58-5.77,5.77-5.77,5.77,2.58,5.77,5.77Z"></path>
  <path class="cls-4" d="M595.52,250.91c0,3.18-2.58,5.77-5.77,5.77s-5.77-2.58-5.77-5.77,2.58-5.77,5.77-5.77,5.77,2.58,5.77,5.77Z"></path>
  <path class="cls-4" d="M635.85,237.05c0,3.18-2.58,5.77-5.77,5.77s-5.77-2.58-5.77-5.77,2.58-5.77,5.77-5.77,5.77,2.58,5.77,5.77Z"></path>
  <path class="cls-4" d="M649.14,250.91c0,3.18-2.58,5.77-5.77,5.77s-5.77-2.58-5.77-5.77,2.58-5.77,5.77-5.77,5.77,2.58,5.77,5.77Z"></path>
  <path class="cls-4" d="M367.5,211.65c0,3.18-2.58,5.77-5.77,5.77s-5.77-2.58-5.77-5.77,2.58-5.77,5.77-5.77,5.77,2.58,5.77,5.77Z"></path>
  <path class="cls-4" d="M394.38,211.65c0,3.18-2.58,5.77-5.77,5.77s-5.77-2.58-5.77-5.77,2.58-5.77,5.77-5.77,5.77,2.58,5.77,5.77Z"></path>
  <path class="cls-4" d="M421.23,211.65c0,3.18-2.58,5.77-5.77,5.77s-5.77-2.58-5.77-5.77,2.58-5.77,5.77-5.77,5.77,2.58,5.77,5.77Z"></path>
  <path class="cls-4" d="M528.59,211.65c0,3.18-2.58,5.77-5.77,5.77s-5.77-2.58-5.77-5.77,2.58-5.77,5.77-5.77,5.77,2.58,5.77,5.77Z"></path>
  <path class="cls-4" d="M354.08,225.51c0,3.18-2.58,5.77-5.77,5.77s-5.77-2.58-5.77-5.77,2.58-5.77,5.77-5.77,5.77,2.58,5.77,5.77Z"></path>
  <path class="cls-4" d="M380.91,225.51c0,3.18-2.58,5.77-5.77,5.77s-5.77-2.58-5.77-5.77,2.58-5.77,5.77-5.77,5.77,2.58,5.77,5.77Z"></path>
  <path class="cls-4" d="M407.72,225.51c0,3.18-2.58,5.77-5.77,5.77s-5.77-2.58-5.77-5.77,2.58-5.77,5.77-5.77,5.77,2.58,5.77,5.77Z"></path>
  <path class="cls-4" d="M434.61,225.51c0,3.18-2.58,5.77-5.77,5.77s-5.77-2.58-5.77-5.77,2.58-5.77,5.77-5.77,5.77,2.58,5.77,5.77Z"></path>
  <path class="cls-4" d="M488.25,225.51c0,3.18-2.58,5.77-5.77,5.77s-5.77-2.58-5.77-5.77,2.58-5.77,5.77-5.77,5.77,2.58,5.77,5.77Z"></path>
  <path class="cls-4" d="M541.97,225.51c0,3.18-2.58,5.77-5.77,5.77s-5.77-2.58-5.77-5.77,2.58-5.77,5.77-5.77,5.77,2.58,5.77,5.77Z"></path>
  <path class="cls-4" d="M609.08,211.65c0,3.18-2.58,5.77-5.77,5.77s-5.77-2.58-5.77-5.77,2.58-5.77,5.77-5.77,5.77,2.58,5.77,5.77Z"></path>
  <path class="cls-4" d="M635.85,211.65c0,3.18-2.58,5.77-5.77,5.77s-5.77-2.58-5.77-5.77,2.58-5.77,5.77-5.77,5.77,2.58,5.77,5.77Z"></path>
  <path class="cls-4" d="M622.37,225.51c0,3.18-2.58,5.77-5.77,5.77s-5.77-2.58-5.77-5.77,2.58-5.77,5.77-5.77,5.77,2.58,5.77,5.77Z"></path>
  <path class="cls-4" d="M367.5,186.25c0,3.18-2.58,5.77-5.77,5.77s-5.77-2.58-5.77-5.77,2.58-5.77,5.77-5.77,5.77,2.58,5.77,5.77Z"></path>
  <path class="cls-4" d="M421.23,186.25c0,3.18-2.58,5.77-5.77,5.77s-5.77-2.58-5.77-5.77,2.58-5.77,5.77-5.77,5.77,2.58,5.77,5.77Z"></path>
  <path class="cls-4" d="M448.08,186.25c0,3.18-2.58,5.77-5.77,5.77s-5.77-2.58-5.77-5.77,2.58-5.77,5.77-5.77,5.77,2.58,5.77,5.77Z"></path>
  <path class="cls-4" d="M501.74,186.25c0,3.18-2.58,5.77-5.77,5.77s-5.77-2.58-5.77-5.77,2.58-5.77,5.77-5.77,5.77,2.58,5.77,5.77Z"></path>
  <path class="cls-4" d="M528.59,186.25c0,3.18-2.58,5.77-5.77,5.77s-5.77-2.58-5.77-5.77,2.58-5.77,5.77-5.77,5.77,2.58,5.77,5.77Z"></path>
  <path class="cls-4" d="M555.47,186.25c0,3.18-2.58,5.77-5.77,5.77s-5.77-2.58-5.77-5.77,2.58-5.77,5.77-5.77,5.77,2.58,5.77,5.77Z"></path>
  <path class="cls-4" d="M582.31,186.25c0,3.18-2.58,5.77-5.77,5.77s-5.77-2.58-5.77-5.77,2.58-5.77,5.77-5.77,5.77,2.58,5.77,5.77Z"></path>
  <path class="cls-4" d="M354.08,200.12c0,3.18-2.58,5.77-5.77,5.77s-5.77-2.58-5.77-5.77,2.58-5.77,5.77-5.77,5.77,2.58,5.77,5.77Z"></path>
  <path class="cls-4" d="M380.91,200.12c0,3.18-2.58,5.77-5.77,5.77s-5.77-2.58-5.77-5.77,2.58-5.77,5.77-5.77,5.77,2.58,5.77,5.77Z"></path>
  <path class="cls-4" d="M407.72,200.12c0,3.18-2.58,5.77-5.77,5.77s-5.77-2.58-5.77-5.77,2.58-5.77,5.77-5.77,5.77,2.58,5.77,5.77Z"></path>
  <path class="cls-4" d="M434.61,200.12c0,3.18-2.58,5.77-5.77,5.77s-5.77-2.58-5.77-5.77,2.58-5.77,5.77-5.77,5.77,2.58,5.77,5.77Z"></path>
  <path class="cls-4" d="M515.11,200.12c0,3.18-2.58,5.77-5.77,5.77s-5.77-2.58-5.77-5.77,2.58-5.77,5.77-5.77,5.77,2.58,5.77,5.77Z"></path>
  <path class="cls-4" d="M595.52,200.12c0,3.18-2.58,5.77-5.77,5.77s-5.77-2.58-5.77-5.77,2.58-5.77,5.77-5.77,5.77,2.58,5.77,5.77Z"></path>
  <path class="cls-4" d="M421.23,160.85c0,3.18-2.58,5.77-5.77,5.77s-5.77-2.58-5.77-5.77,2.58-5.77,5.77-5.77,5.77,2.58,5.77,5.77Z"></path>
  <path class="cls-4" d="M448.08,160.85c0,3.18-2.58,5.77-5.77,5.77s-5.77-2.58-5.77-5.77,2.58-5.77,5.77-5.77,5.77,2.58,5.77,5.77Z"></path>
  <path class="cls-4" d="M474.88,160.85c0,3.18-2.58,5.77-5.77,5.77s-5.77-2.58-5.77-5.77,2.58-5.77,5.77-5.77,5.77,2.58,5.77,5.77Z"></path>
  <path class="cls-4" d="M501.74,160.85c0,3.18-2.58,5.77-5.77,5.77s-5.77-2.58-5.77-5.77,2.58-5.77,5.77-5.77,5.77,2.58,5.77,5.77Z"></path>
  <path class="cls-4" d="M528.59,160.85c0,3.18-2.58,5.77-5.77,5.77s-5.77-2.58-5.77-5.77,2.58-5.77,5.77-5.77,5.77,2.58,5.77,5.77Z"></path>
  <path class="cls-4" d="M555.47,160.85c0,3.18-2.58,5.77-5.77,5.77s-5.77-2.58-5.77-5.77,2.58-5.77,5.77-5.77,5.77,2.58,5.77,5.77Z"></path>
  <path class="cls-4" d="M582.31,160.85c0,3.18-2.58,5.77-5.77,5.77s-5.77-2.58-5.77-5.77,2.58-5.77,5.77-5.77,5.77,2.58,5.77,5.77Z"></path>
  <path class="cls-4" d="M407.72,174.72c0,3.18-2.58,5.77-5.77,5.77s-5.77-2.58-5.77-5.77,2.58-5.77,5.77-5.77,5.77,2.58,5.77,5.77Z"></path>
  <path class="cls-4" d="M434.61,174.72c0,3.18-2.58,5.77-5.77,5.77s-5.77-2.58-5.77-5.77,2.58-5.77,5.77-5.77,5.77,2.58,5.77,5.77Z"></path>
  <path class="cls-4" d="M461.42,174.72c0,3.18-2.58,5.77-5.77,5.77s-5.77-2.58-5.77-5.77,2.58-5.77,5.77-5.77,5.77,2.58,5.77,5.77Z"></path>
  <path class="cls-4" d="M488.25,174.72c0,3.18-2.58,5.77-5.77,5.77s-5.77-2.58-5.77-5.77,2.58-5.77,5.77-5.77,5.77,2.58,5.77,5.77Z"></path>
  <path class="cls-4" d="M515.11,174.72c0,3.18-2.58,5.77-5.77,5.77s-5.77-2.58-5.77-5.77,2.58-5.77,5.77-5.77,5.77,2.58,5.77,5.77Z"></path>
  <path class="cls-4" d="M541.97,174.72c0,3.18-2.58,5.77-5.77,5.77s-5.77-2.58-5.77-5.77,2.58-5.77,5.77-5.77,5.77,2.58,5.77,5.77Z"></path>
  <path class="cls-4" d="M568.79,174.72c0,3.18-2.58,5.77-5.77,5.77s-5.77-2.58-5.77-5.77,2.58-5.77,5.77-5.77,5.77,2.58,5.77,5.77Z"></path>
  <path class="cls-4" d="M609.08,160.85c0,3.18-2.58,5.77-5.77,5.77s-5.77-2.58-5.77-5.77,2.58-5.77,5.77-5.77,5.77,2.58,5.77,5.77Z"></path>
  <path class="cls-4" d="M595.52,174.72c0,3.18-2.58,5.77-5.77,5.77s-5.77-2.58-5.77-5.77,2.58-5.77,5.77-5.77,5.77,2.58,5.77,5.77Z"></path>
  <path class="cls-4" d="M622.37,174.72c0,3.18-2.58,5.77-5.77,5.77s-5.77-2.58-5.77-5.77,2.58-5.77,5.77-5.77,5.77,2.58,5.77,5.77Z"></path>
  <path class="cls-4" d="M421.23,135.45c0,3.18-2.58,5.77-5.77,5.77s-5.77-2.58-5.77-5.77,2.58-5.77,5.77-5.77,5.77,2.58,5.77,5.77Z"></path>
  <path class="cls-4" d="M448.08,135.45c0,3.18-2.58,5.77-5.77,5.77s-5.77-2.58-5.77-5.77,2.58-5.77,5.77-5.77,5.77,2.58,5.77,5.77Z"></path>
  <path class="cls-4" d="M474.88,135.45c0,3.18-2.58,5.77-5.77,5.77s-5.77-2.58-5.77-5.77,2.58-5.77,5.77-5.77,5.77,2.58,5.77,5.77Z"></path>
  <path class="cls-4" d="M501.74,135.45c0,3.18-2.58,5.77-5.77,5.77s-5.77-2.58-5.77-5.77,2.58-5.77,5.77-5.77,5.77,2.58,5.77,5.77Z"></path>
  <path class="cls-4" d="M582.31,135.45c0,3.18-2.58,5.77-5.77,5.77s-5.77-2.58-5.77-5.77,2.58-5.77,5.77-5.77,5.77,2.58,5.77,5.77Z"></path>
  <path class="cls-4" d="M434.61,149.32c0,3.18-2.58,5.77-5.77,5.77s-5.77-2.58-5.77-5.77,2.58-5.77,5.77-5.77,5.77,2.58,5.77,5.77Z"></path>
  <path class="cls-4" d="M461.42,149.32c0,3.18-2.58,5.77-5.77,5.77s-5.77-2.58-5.77-5.77,2.58-5.77,5.77-5.77,5.77,2.58,5.77,5.77Z"></path>
  <path class="cls-4" d="M488.25,149.32c0,3.18-2.58,5.77-5.77,5.77s-5.77-2.58-5.77-5.77,2.58-5.77,5.77-5.77,5.77,2.58,5.77,5.77Z"></path>
  <path class="cls-4" d="M609.08,135.45c0,3.18-2.58,5.77-5.77,5.77s-5.77-2.58-5.77-5.77,2.58-5.77,5.77-5.77,5.77,2.58,5.77,5.77Z"></path>
  <path class="cls-4" d="M595.52,149.32c0,3.18-2.58,5.77-5.77,5.77s-5.77-2.58-5.77-5.77,2.58-5.77,5.77-5.77,5.77,2.58,5.77,5.77Z"></path>
  <path class="cls-4" d="M421.23,110.05c0,3.18-2.58,5.77-5.77,5.77s-5.77-2.58-5.77-5.77,2.58-5.77,5.77-5.77,5.77,2.58,5.77,5.77Z"></path>
  <path class="cls-4" d="M448.08,110.05c0,3.18-2.58,5.77-5.77,5.77s-5.77-2.58-5.77-5.77,2.58-5.77,5.77-5.77,5.77,2.58,5.77,5.77Z"></path>
  <path class="cls-4" d="M407.72,123.92c0,3.18-2.58,5.77-5.77,5.77s-5.77-2.58-5.77-5.77,2.58-5.77,5.77-5.77,5.77,2.58,5.77,5.77Z"></path>
  <path class="cls-4" d="M434.61,123.92c0,3.18-2.58,5.77-5.77,5.77s-5.77-2.58-5.77-5.77,2.58-5.77,5.77-5.77,5.77,2.58,5.77,5.77Z"></path>
  <path class="cls-4" d="M461.42,123.92c0,3.18-2.58,5.77-5.77,5.77s-5.77-2.58-5.77-5.77,2.58-5.77,5.77-5.77,5.77,2.58,5.77,5.77Z"></path>
  <path class="cls-4" d="M595.52,123.92c0,3.18-2.58,5.77-5.77,5.77s-5.77-2.58-5.77-5.77,2.58-5.77,5.77-5.77,5.77,2.58,5.77,5.77Z"></path>
  <path class="cls-2" d="M704.89,593.37c0,3.18,2.58,5.76,5.77,5.76s5.77-2.58,5.77-5.76-2.58-5.77-5.77-5.77-5.77,2.58-5.77,5.77Z"></path>
  <path class="cls-2" d="M678.05,593.37c0,3.18,2.58,5.76,5.77,5.76s5.77-2.58,5.77-5.76-2.58-5.77-5.77-5.77-5.77,2.58-5.77,5.77Z"></path>
  <path class="cls-2" d="M651.2,593.37c0,3.18,2.58,5.76,5.77,5.76s5.77-2.58,5.77-5.76-2.58-5.77-5.77-5.77-5.77,2.58-5.77,5.77Z"></path>
  <path class="cls-2" d="M597.54,593.37c0,3.18,2.58,5.76,5.77,5.76s5.77-2.58,5.77-5.76-2.58-5.77-5.77-5.77-5.77,2.58-5.77,5.77Z"></path>
  <path class="cls-2" d="M731.78,567.97c0,3.18,2.58,5.77,5.76,5.77s5.77-2.58,5.77-5.77-2.58-5.77-5.77-5.77-5.76,2.58-5.76,5.77Z"></path>
  <path class="cls-2" d="M704.89,567.97c0,3.18,2.58,5.77,5.77,5.77s5.77-2.58,5.77-5.77-2.58-5.77-5.77-5.77-5.77,2.58-5.77,5.77Z"></path>
  <path class="cls-2" d="M678.05,567.97c0,3.18,2.58,5.77,5.77,5.77s5.77-2.58,5.77-5.77-2.58-5.77-5.77-5.77-5.77,2.58-5.77,5.77Z"></path>
  <path class="cls-2" d="M651.2,567.97c0,3.18,2.58,5.77,5.77,5.77s5.77-2.58,5.77-5.77-2.58-5.77-5.77-5.77-5.77,2.58-5.77,5.77Z"></path>
  <path class="cls-2" d="M624.39,567.97c0,3.18,2.58,5.77,5.77,5.77s5.77-2.58,5.77-5.77-2.58-5.77-5.77-5.77-5.77,2.58-5.77,5.77Z"></path>
  <path class="cls-2" d="M597.54,567.97c0,3.18,2.58,5.77,5.77,5.77s5.77-2.58,5.77-5.77-2.58-5.77-5.77-5.77-5.77,2.58-5.77,5.77Z"></path>
  <path class="cls-2" d="M758.01,542.63c0,3.18,2.58,5.77,5.77,5.77s5.76-2.58,5.76-5.77-2.58-5.77-5.76-5.77-5.77,2.58-5.77,5.77Z"></path>
  <path class="cls-2" d="M718.37,581.84c0,3.18,2.58,5.77,5.77,5.77s5.76-2.58,5.76-5.77-2.58-5.77-5.76-5.77-5.77,2.58-5.77,5.77Z"></path>
  <path class="cls-2" d="M691.56,581.84c0,3.18,2.58,5.77,5.77,5.77s5.77-2.58,5.77-5.77-2.58-5.77-5.77-5.77-5.77,2.58-5.77,5.77Z"></path>
  <path class="cls-2" d="M664.67,581.84c0,3.18,2.58,5.77,5.77,5.77s5.77-2.58,5.77-5.77-2.58-5.77-5.77-5.77-5.77,2.58-5.77,5.77Z"></path>
  <path class="cls-2" d="M637.86,581.84c0,3.18,2.58,5.77,5.76,5.77s5.77-2.58,5.77-5.77-2.58-5.77-5.77-5.77-5.76,2.58-5.76,5.77Z"></path>
  <path class="cls-2" d="M611.03,581.84c0,3.18,2.58,5.77,5.77,5.77s5.77-2.58,5.77-5.77-2.58-5.77-5.77-5.77-5.77,2.58-5.77,5.77Z"></path>
  <path class="cls-2" d="M731.78,542.57c0,3.18,2.58,5.77,5.76,5.77s5.77-2.58,5.77-5.77-2.58-5.77-5.77-5.77-5.76,2.58-5.76,5.77Z"></path>
  <path class="cls-2" d="M704.89,542.57c0,3.18,2.58,5.77,5.77,5.77s5.77-2.58,5.77-5.77-2.58-5.77-5.77-5.77-5.77,2.58-5.77,5.77Z"></path>
  <path class="cls-2" d="M678.05,542.57c0,3.18,2.58,5.77,5.77,5.77s5.77-2.58,5.77-5.77-2.58-5.77-5.77-5.77-5.77,2.58-5.77,5.77Z"></path>
  <path class="cls-2" d="M651.2,542.57c0,3.18,2.58,5.77,5.77,5.77s5.77-2.58,5.77-5.77-2.58-5.77-5.77-5.77-5.77,2.58-5.77,5.77Z"></path>
  <path class="cls-2" d="M624.39,542.57c0,3.18,2.58,5.77,5.77,5.77s5.77-2.58,5.77-5.77-2.58-5.77-5.77-5.77-5.77,2.58-5.77,5.77Z"></path>
  <path class="cls-2" d="M745.2,556.44c0,3.18,2.58,5.77,5.77,5.77s5.77-2.58,5.77-5.77-2.58-5.77-5.77-5.77-5.77,2.58-5.77,5.77Z"></path>
  <path class="cls-2" d="M718.36,556.44c0,3.18,2.58,5.77,5.76,5.77s5.77-2.58,5.77-5.77-2.58-5.77-5.77-5.77-5.76,2.58-5.76,5.77Z"></path>
  <path class="cls-2" d="M691.52,556.44c0,3.18,2.58,5.77,5.77,5.77s5.76-2.58,5.76-5.77-2.58-5.77-5.76-5.77-5.77,2.58-5.77,5.77Z"></path>
  <path class="cls-2" d="M664.68,556.44c0,3.18,2.58,5.77,5.77,5.77s5.77-2.58,5.77-5.77-2.58-5.77-5.77-5.77-5.77,2.58-5.77,5.77Z"></path>
  <path class="cls-2" d="M637.84,556.44c0,3.18,2.58,5.77,5.77,5.77s5.77-2.58,5.77-5.77-2.58-5.77-5.77-5.77-5.77,2.58-5.77,5.77Z"></path>
  <path class="cls-2" d="M611,556.44c0,3.18,2.58,5.77,5.77,5.77s5.77-2.58,5.77-5.77-2.58-5.77-5.77-5.77-5.77,2.58-5.77,5.77Z"></path>
  <path class="cls-2" d="M584.16,556.44c0,3.18,2.58,5.77,5.77,5.77s5.77-2.58,5.77-5.77-2.58-5.77-5.77-5.77-5.77,2.58-5.77,5.77Z"></path>
  <path class="cls-2" d="M704.57,517.95c0,3.18,2.58,5.77,5.77,5.77s5.76-2.58,5.76-5.77-2.58-5.77-5.76-5.77-5.77,2.58-5.77,5.77Z"></path>
  <path class="cls-2" d="M677.84,517.95c0,3.18,2.58,5.77,5.77,5.77s5.77-2.58,5.77-5.77-2.58-5.77-5.77-5.77-5.77,2.58-5.77,5.77Z"></path>
  <path class="cls-2" d="M651.12,517.95c0,3.18,2.58,5.77,5.77,5.77s5.76-2.58,5.76-5.77-2.58-5.77-5.76-5.77-5.77,2.58-5.77,5.77Z"></path>
  <path class="cls-2" d="M624.39,517.95c0,3.18,2.58,5.77,5.77,5.77s5.77-2.58,5.77-5.77-2.58-5.77-5.77-5.77-5.77,2.58-5.77,5.77Z"></path>
  <path class="cls-2" d="M718.37,531.04c0,3.18,2.58,5.76,5.77,5.76s5.76-2.58,5.76-5.76-2.58-5.77-5.76-5.77-5.77,2.58-5.77,5.77Z"></path>
  <path class="cls-2" d="M691.56,531.04c0,3.18,2.58,5.76,5.77,5.76s5.77-2.58,5.77-5.76-2.58-5.77-5.77-5.77-5.77,2.58-5.77,5.77Z"></path>
  <path class="cls-2" d="M664.67,531.04c0,3.18,2.58,5.76,5.77,5.76s5.77-2.58,5.77-5.76-2.58-5.77-5.77-5.77-5.77,2.58-5.77,5.77Z"></path>
  <path class="cls-2" d="M637.86,531.04c0,3.18,2.58,5.76,5.76,5.76s5.77-2.58,5.77-5.76-2.58-5.77-5.77-5.77-5.76,2.58-5.76,5.77Z"></path>
  <path class="cls-2" d="M758.55,491.77c0,3.18,2.58,5.76,5.76,5.76s5.77-2.58,5.77-5.76-2.58-5.77-5.77-5.77-5.76,2.58-5.76,5.77Z"></path>
  <path class="cls-2" d="M731.78,491.77c0,3.18,2.58,5.76,5.76,5.76s5.77-2.58,5.77-5.76-2.58-5.77-5.77-5.77-5.76,2.58-5.76,5.77Z"></path>
  <path class="cls-2" d="M704.89,491.77c0,3.18,2.58,5.76,5.77,5.76s5.77-2.58,5.77-5.76-2.58-5.77-5.77-5.77-5.77,2.58-5.77,5.77Z"></path>
  <path class="cls-2" d="M678.05,491.77c0,3.18,2.58,5.76,5.77,5.76s5.77-2.58,5.77-5.76-2.58-5.77-5.77-5.77-5.77,2.58-5.77,5.77Z"></path>
  <path class="cls-2" d="M651.2,491.77c0,3.18,2.58,5.76,5.77,5.76s5.77-2.58,5.77-5.76-2.58-5.77-5.77-5.77-5.77,2.58-5.77,5.77Z"></path>
  <path class="cls-2" d="M624.39,491.77c0,3.18,2.58,5.76,5.77,5.76s5.77-2.58,5.77-5.76-2.58-5.77-5.77-5.77-5.77,2.58-5.77,5.77Z"></path>
  <path class="cls-2" d="M597.54,491.77c0,3.18,2.58,5.76,5.77,5.76s5.77-2.58,5.77-5.76-2.58-5.77-5.77-5.77-5.77,2.58-5.77,5.77Z"></path>
  <path class="cls-2" d="M718.37,505.64c0,3.18,2.58,5.77,5.77,5.77s5.76-2.58,5.76-5.77-2.58-5.77-5.76-5.77-5.77,2.58-5.77,5.77Z"></path>
  <path class="cls-2" d="M691.56,505.64c0,3.18,2.58,5.77,5.77,5.77s5.77-2.58,5.77-5.77-2.58-5.77-5.77-5.77-5.77,2.58-5.77,5.77Z"></path>
  <path class="cls-2" d="M664.67,505.64c0,3.18,2.58,5.77,5.77,5.77s5.77-2.58,5.77-5.77-2.58-5.77-5.77-5.77-5.77,2.58-5.77,5.77Z"></path>
  <path class="cls-2" d="M637.86,505.64c0,3.18,2.58,5.77,5.76,5.77s5.77-2.58,5.77-5.77-2.58-5.77-5.77-5.77-5.76,2.58-5.76,5.77Z"></path>
  <path class="cls-2" d="M731.78,466.37c0,3.18,2.58,5.77,5.76,5.77s5.77-2.58,5.77-5.77-2.58-5.77-5.77-5.77-5.76,2.58-5.76,5.77Z"></path>
  <path class="cls-2" d="M704.89,466.37c0,3.18,2.58,5.77,5.77,5.77s5.77-2.58,5.77-5.77-2.58-5.77-5.77-5.77-5.77,2.58-5.77,5.77Z"></path>
  <path class="cls-2" d="M678.05,466.37c0,3.18,2.58,5.77,5.77,5.77s5.77-2.58,5.77-5.77-2.58-5.77-5.77-5.77-5.77,2.58-5.77,5.77Z"></path>
  <path class="cls-2" d="M651.2,466.37c0,3.18,2.58,5.77,5.77,5.77s5.77-2.58,5.77-5.77-2.58-5.77-5.77-5.77-5.77,2.58-5.77,5.77Z"></path>
  <path class="cls-2" d="M624.39,466.37c0,3.18,2.58,5.77,5.77,5.77s5.77-2.58,5.77-5.77-2.58-5.77-5.77-5.77-5.77,2.58-5.77,5.77Z"></path>
  <path class="cls-2" d="M597.54,466.37c0,3.18,2.58,5.77,5.77,5.77s5.77-2.58,5.77-5.77-2.58-5.77-5.77-5.77-5.77,2.58-5.77,5.77Z"></path>
  <path class="cls-2" d="M570.68,466.37c0,3.18,2.58,5.77,5.77,5.77s5.77-2.58,5.77-5.77-2.58-5.77-5.77-5.77-5.77,2.58-5.77,5.77Z"></path>
  <path class="cls-2" d="M745.2,480.24c0,3.18,2.58,5.77,5.77,5.77s5.77-2.58,5.77-5.77-2.58-5.77-5.77-5.77-5.77,2.58-5.77,5.77Z"></path>
  <path class="cls-2" d="M718.37,480.24c0,3.18,2.58,5.77,5.77,5.77s5.76-2.58,5.76-5.77-2.58-5.77-5.76-5.77-5.77,2.58-5.77,5.77Z"></path>
  <path class="cls-2" d="M691.56,480.24c0,3.18,2.58,5.77,5.77,5.77s5.77-2.58,5.77-5.77-2.58-5.77-5.77-5.77-5.77,2.58-5.77,5.77Z"></path>
  <path class="cls-2" d="M664.67,480.24c0,3.18,2.58,5.77,5.77,5.77s5.77-2.58,5.77-5.77-2.58-5.77-5.77-5.77-5.77,2.58-5.77,5.77Z"></path>
  <path class="cls-2" d="M637.86,480.24c0,3.18,2.58,5.77,5.76,5.77s5.77-2.58,5.77-5.77-2.58-5.77-5.77-5.77-5.76,2.58-5.76,5.77Z"></path>
  <path class="cls-2" d="M611.03,480.24c0,3.18,2.58,5.77,5.77,5.77s5.77-2.58,5.77-5.77-2.58-5.77-5.77-5.77-5.77,2.58-5.77,5.77Z"></path>
  <path class="cls-2" d="M584.16,480.24c0,3.18,2.58,5.77,5.77,5.77s5.77-2.58,5.77-5.77-2.58-5.77-5.77-5.77-5.77,2.58-5.77,5.77Z"></path>
  <path class="cls-2" d="M785.39,440.98c0,3.18,2.58,5.77,5.76,5.77s5.77-2.58,5.77-5.77-2.58-5.77-5.77-5.77-5.76,2.58-5.76,5.77Z"></path>
  <path class="cls-2" d="M758.55,440.98c0,3.18,2.58,5.77,5.76,5.77s5.77-2.58,5.77-5.77-2.58-5.77-5.77-5.77-5.76,2.58-5.76,5.77Z"></path>
  <path class="cls-2" d="M731.78,440.98c0,3.18,2.58,5.77,5.76,5.77s5.77-2.58,5.77-5.77-2.58-5.77-5.77-5.77-5.76,2.58-5.76,5.77Z"></path>
  <path class="cls-2" d="M704.89,440.98c0,3.18,2.58,5.77,5.77,5.77s5.77-2.58,5.77-5.77-2.58-5.77-5.77-5.77-5.77,2.58-5.77,5.77Z"></path>
  <path class="cls-2" d="M678.05,440.98c0,3.18,2.58,5.77,5.77,5.77s5.77-2.58,5.77-5.77-2.58-5.77-5.77-5.77-5.77,2.58-5.77,5.77Z"></path>
  <path class="cls-2" d="M651.2,440.98c0,3.18,2.58,5.77,5.77,5.77s5.77-2.58,5.77-5.77-2.58-5.77-5.77-5.77-5.77,2.58-5.77,5.77Z"></path>
  <path class="cls-2" d="M624.39,440.98c0,3.18,2.58,5.77,5.77,5.77s5.77-2.58,5.77-5.77-2.58-5.77-5.77-5.77-5.77,2.58-5.77,5.77Z"></path>
  <path class="cls-2" d="M597.54,440.98c0,3.18,2.58,5.77,5.77,5.77s5.77-2.58,5.77-5.77-2.58-5.77-5.77-5.77-5.77,2.58-5.77,5.77Z"></path>
  <path class="cls-2" d="M570.68,440.98c0,3.18,2.58,5.77,5.77,5.77s5.77-2.58,5.77-5.77-2.58-5.77-5.77-5.77-5.77,2.58-5.77,5.77Z"></path>
  <path class="cls-2" d="M772.01,454.84c0,3.18,2.58,5.77,5.77,5.77s5.77-2.58,5.77-5.77-2.58-5.76-5.77-5.76-5.77,2.58-5.77,5.76Z"></path>
  <path class="cls-2" d="M745.2,454.84c0,3.18,2.58,5.77,5.77,5.77s5.77-2.58,5.77-5.77-2.58-5.76-5.77-5.76-5.77,2.58-5.77,5.76Z"></path>
  <path class="cls-2" d="M718.37,454.84c0,3.18,2.58,5.77,5.77,5.77s5.76-2.58,5.76-5.77-2.58-5.76-5.76-5.76-5.77,2.58-5.77,5.76Z"></path>
  <path class="cls-2" d="M691.56,454.84c0,3.18,2.58,5.77,5.77,5.77s5.77-2.58,5.77-5.77-2.58-5.76-5.77-5.76-5.77,2.58-5.77,5.76Z"></path>
  <path class="cls-2" d="M664.67,454.84c0,3.18,2.58,5.77,5.77,5.77s5.77-2.58,5.77-5.77-2.58-5.76-5.77-5.76-5.77,2.58-5.77,5.76Z"></path>
  <path class="cls-2" d="M637.86,454.84c0,3.18,2.58,5.77,5.76,5.77s5.77-2.58,5.77-5.77-2.58-5.76-5.77-5.76-5.76,2.58-5.76,5.76Z"></path>
  <path class="cls-2" d="M611.03,454.84c0,3.18,2.58,5.77,5.77,5.77s5.77-2.58,5.77-5.77-2.58-5.76-5.77-5.76-5.77,2.58-5.77,5.76Z"></path>
  <path class="cls-2" d="M584.16,454.84c0,3.18,2.58,5.77,5.77,5.77s5.77-2.58,5.77-5.77-2.58-5.76-5.77-5.76-5.77,2.58-5.77,5.76Z"></path>
  <path class="cls-2" d="M785.39,415.58c0,3.18,2.58,5.77,5.76,5.77s5.77-2.58,5.77-5.77-2.58-5.77-5.77-5.77-5.76,2.58-5.76,5.77Z"></path>
  <path class="cls-2" d="M758.55,415.58c0,3.18,2.58,5.77,5.76,5.77s5.77-2.58,5.77-5.77-2.58-5.77-5.77-5.77-5.76,2.58-5.76,5.77Z"></path>
  <path class="cls-2" d="M731.78,415.58c0,3.18,2.58,5.77,5.76,5.77s5.77-2.58,5.77-5.77-2.58-5.77-5.77-5.77-5.76,2.58-5.76,5.77Z"></path>
  <path class="cls-2" d="M704.89,415.58c0,3.18,2.58,5.77,5.77,5.77s5.77-2.58,5.77-5.77-2.58-5.77-5.77-5.77-5.77,2.58-5.77,5.77Z"></path>
  <path class="cls-2" d="M678.05,415.58c0,3.18,2.58,5.77,5.77,5.77s5.77-2.58,5.77-5.77-2.58-5.77-5.77-5.77-5.77,2.58-5.77,5.77Z"></path>
  <path class="cls-2" d="M651.2,415.58c0,3.18,2.58,5.77,5.77,5.77s5.77-2.58,5.77-5.77-2.58-5.77-5.77-5.77-5.77,2.58-5.77,5.77Z"></path>
  <path class="cls-2" d="M624.39,415.58c0,3.18,2.58,5.77,5.77,5.77s5.77-2.58,5.77-5.77-2.58-5.77-5.77-5.77-5.77,2.58-5.77,5.77Z"></path>
  <path class="cls-2" d="M597.54,415.58c0,3.18,2.58,5.77,5.77,5.77s5.77-2.58,5.77-5.77-2.58-5.77-5.77-5.77-5.77,2.58-5.77,5.77Z"></path>
  <path class="cls-2" d="M570.68,415.58c0,3.18,2.58,5.77,5.77,5.77s5.77-2.58,5.77-5.77-2.58-5.77-5.77-5.77-5.77,2.58-5.77,5.77Z"></path>
  <path class="cls-2" d="M798.88,429.45c0,3.18,2.58,5.76,5.77,5.76s5.77-2.58,5.77-5.76-2.58-5.77-5.77-5.77-5.77,2.58-5.77,5.77Z"></path>
  <path class="cls-2" d="M772.01,429.45c0,3.18,2.58,5.76,5.77,5.76s5.77-2.58,5.77-5.76-2.58-5.77-5.77-5.77-5.77,2.58-5.77,5.77Z"></path>
  <path class="cls-2" d="M745.2,429.45c0,3.18,2.58,5.76,5.77,5.76s5.77-2.58,5.77-5.76-2.58-5.77-5.77-5.77-5.77,2.58-5.77,5.77Z"></path>
  <path class="cls-2" d="M718.37,429.45c0,3.18,2.58,5.76,5.77,5.76s5.76-2.58,5.76-5.76-2.58-5.77-5.76-5.77-5.77,2.58-5.77,5.77Z"></path>
  <path class="cls-2" d="M691.56,429.45c0,3.18,2.58,5.76,5.77,5.76s5.77-2.58,5.77-5.76-2.58-5.77-5.77-5.77-5.77,2.58-5.77,5.77Z"></path>
  <path class="cls-2" d="M664.67,429.45c0,3.18,2.58,5.76,5.77,5.76s5.77-2.58,5.77-5.76-2.58-5.77-5.77-5.77-5.77,2.58-5.77,5.77Z"></path>
  <path class="cls-2" d="M637.86,429.45c0,3.18,2.58,5.76,5.76,5.76s5.77-2.58,5.77-5.76-2.58-5.77-5.77-5.77-5.76,2.58-5.76,5.77Z"></path>
  <path class="cls-2" d="M611.03,429.45c0,3.18,2.58,5.76,5.77,5.76s5.77-2.58,5.77-5.76-2.58-5.77-5.77-5.77-5.77,2.58-5.77,5.77Z"></path>
  <path class="cls-2" d="M584.16,429.45c0,3.18,2.58,5.76,5.77,5.76s5.77-2.58,5.77-5.76-2.58-5.77-5.77-5.77-5.77,2.58-5.77,5.77Z"></path>
  <path class="cls-2" d="M557.3,429.45c0,3.18,2.58,5.76,5.77,5.76s5.77-2.58,5.77-5.76-2.58-5.77-5.77-5.77-5.77,2.58-5.77,5.77Z"></path>
  <path class="cls-2" d="M758.55,390.18c0,3.18,2.58,5.77,5.76,5.77s5.77-2.58,5.77-5.77-2.58-5.77-5.77-5.77-5.76,2.58-5.76,5.77Z"></path>
  <path class="cls-2" d="M731.78,390.18c0,3.18,2.58,5.77,5.76,5.77s5.77-2.58,5.77-5.77-2.58-5.77-5.77-5.77-5.76,2.58-5.76,5.77Z"></path>
  <path class="cls-2" d="M704.89,390.18c0,3.18,2.58,5.77,5.77,5.77s5.77-2.58,5.77-5.77-2.58-5.77-5.77-5.77-5.77,2.58-5.77,5.77Z"></path>
  <path class="cls-2" d="M678.05,390.18c0,3.18,2.58,5.77,5.77,5.77s5.77-2.58,5.77-5.77-2.58-5.77-5.77-5.77-5.77,2.58-5.77,5.77Z"></path>
  <path class="cls-2" d="M651.2,390.18c0,3.18,2.58,5.77,5.77,5.77s5.77-2.58,5.77-5.77-2.58-5.77-5.77-5.77-5.77,2.58-5.77,5.77Z"></path>
  <path class="cls-2" d="M624.39,390.18c0,3.18,2.58,5.77,5.77,5.77s5.77-2.58,5.77-5.77-2.58-5.77-5.77-5.77-5.77,2.58-5.77,5.77Z"></path>
  <path class="cls-2" d="M772.01,404.05c0,3.18,2.58,5.77,5.77,5.77s5.77-2.58,5.77-5.77-2.58-5.77-5.77-5.77-5.77,2.58-5.77,5.77Z"></path>
  <path class="cls-2" d="M745.2,404.05c0,3.18,2.58,5.77,5.77,5.77s5.77-2.58,5.77-5.77-2.58-5.77-5.77-5.77-5.77,2.58-5.77,5.77Z"></path>
  <path class="cls-2" d="M718.37,404.05c0,3.18,2.58,5.77,5.77,5.77s5.76-2.58,5.76-5.77-2.58-5.77-5.76-5.77-5.77,2.58-5.77,5.77Z"></path>
  <path class="cls-2" d="M691.56,404.05c0,3.18,2.58,5.77,5.77,5.77s5.77-2.58,5.77-5.77-2.58-5.77-5.77-5.77-5.77,2.58-5.77,5.77Z"></path>
  <path class="cls-2" d="M664.67,404.05c0,3.18,2.58,5.77,5.77,5.77s5.77-2.58,5.77-5.77-2.58-5.77-5.77-5.77-5.77,2.58-5.77,5.77Z"></path>
  <path class="cls-2" d="M637.86,404.05c0,3.18,2.58,5.77,5.76,5.77s5.77-2.58,5.77-5.77-2.58-5.77-5.77-5.77-5.76,2.58-5.76,5.77Z"></path>
  <path class="cls-2" d="M611.03,404.05c0,3.18,2.58,5.77,5.77,5.77s5.77-2.58,5.77-5.77-2.58-5.77-5.77-5.77-5.77,2.58-5.77,5.77Z"></path>
  <path class="cls-2" d="M731.78,364.78c0,3.18,2.58,5.77,5.76,5.77s5.77-2.58,5.77-5.77-2.58-5.77-5.77-5.77-5.76,2.58-5.76,5.77Z"></path>
  <path class="cls-2" d="M704.89,364.78c0,3.18,2.58,5.77,5.77,5.77s5.77-2.58,5.77-5.77-2.58-5.77-5.77-5.77-5.77,2.58-5.77,5.77Z"></path>
  <path class="cls-2" d="M678.05,364.78c0,3.18,2.58,5.77,5.77,5.77s5.77-2.58,5.77-5.77-2.58-5.77-5.77-5.77-5.77,2.58-5.77,5.77Z"></path>
  <path class="cls-2" d="M745.2,378.65c0,3.18,2.58,5.77,5.77,5.77s5.77-2.58,5.77-5.77-2.58-5.77-5.77-5.77-5.77,2.58-5.77,5.77Z"></path>
  <path class="cls-2" d="M718.37,378.65c0,3.18,2.58,5.77,5.77,5.77s5.76-2.58,5.76-5.77-2.58-5.77-5.76-5.77-5.77,2.58-5.77,5.77Z"></path>
  <path class="cls-2" d="M691.56,378.65c0,3.18,2.58,5.77,5.77,5.77s5.77-2.58,5.77-5.77-2.58-5.77-5.77-5.77-5.77,2.58-5.77,5.77Z"></path>
  <path class="cls-2" d="M664.67,378.65c0,3.18,2.58,5.77,5.77,5.77s5.77-2.58,5.77-5.77-2.58-5.77-5.77-5.77-5.77,2.58-5.77,5.77Z"></path>
  <path class="cls-2" d="M637.86,378.65c0,3.18,2.58,5.77,5.76,5.77s5.77-2.58,5.77-5.77-2.58-5.77-5.77-5.77-5.76,2.58-5.76,5.77Z"></path>
  <path class="cls-2" d="M785.39,339.38c0,3.18,2.58,5.77,5.76,5.77s5.77-2.58,5.77-5.77-2.58-5.77-5.77-5.77-5.76,2.58-5.76,5.77Z"></path>
  <path class="cls-2" d="M758.55,339.38c0,3.18,2.58,5.77,5.76,5.77s5.77-2.58,5.77-5.77-2.58-5.77-5.77-5.77-5.76,2.58-5.76,5.77Z"></path>
  <path class="cls-2" d="M731.78,339.38c0,3.18,2.58,5.77,5.76,5.77s5.77-2.58,5.77-5.77-2.58-5.77-5.77-5.77-5.76,2.58-5.76,5.77Z"></path>
  <path class="cls-2" d="M704.89,339.38c0,3.18,2.58,5.77,5.77,5.77s5.77-2.58,5.77-5.77-2.58-5.77-5.77-5.77-5.77,2.58-5.77,5.77Z"></path>
  <path class="cls-2" d="M678.05,339.38c0,3.18,2.58,5.77,5.77,5.77s5.77-2.58,5.77-5.77-2.58-5.77-5.77-5.77-5.77,2.58-5.77,5.77Z"></path>
  <circle class="cls-2" cx="804.65" cy="353.25" r="5.77"></circle>
  <path class="cls-2" d="M772.01,353.25c0,3.18,2.58,5.77,5.77,5.77s5.77-2.58,5.77-5.77-2.58-5.77-5.77-5.77-5.77,2.58-5.77,5.77Z"></path>
  <path class="cls-2" d="M745.2,353.25c0,3.18,2.58,5.77,5.77,5.77s5.77-2.58,5.77-5.77-2.58-5.77-5.77-5.77-5.77,2.58-5.77,5.77Z"></path>
  <path class="cls-2" d="M718.37,353.25c0,3.18,2.58,5.77,5.77,5.77s5.76-2.58,5.76-5.77-2.58-5.77-5.76-5.77-5.77,2.58-5.77,5.77Z"></path>
  <path class="cls-2" d="M691.56,353.25c0,3.18,2.58,5.77,5.77,5.77s5.77-2.58,5.77-5.77-2.58-5.77-5.77-5.77-5.77,2.58-5.77,5.77Z"></path>
  <path class="cls-2" d="M664.67,353.25c0,3.18,2.58,5.77,5.77,5.77s5.77-2.58,5.77-5.77-2.58-5.77-5.77-5.77-5.77,2.58-5.77,5.77Z"></path>
  <path class="cls-2" d="M758.55,313.98c0,3.18,2.58,5.77,5.76,5.77s5.77-2.58,5.77-5.77-2.58-5.77-5.77-5.77-5.76,2.58-5.76,5.77Z"></path>
  <path class="cls-2" d="M731.78,313.98c0,3.18,2.58,5.77,5.76,5.77s5.77-2.58,5.77-5.77-2.58-5.77-5.77-5.77-5.76,2.58-5.76,5.77Z"></path>
  <path class="cls-2" d="M704.89,313.98c0,3.18,2.58,5.77,5.77,5.77s5.77-2.58,5.77-5.77-2.58-5.77-5.77-5.77-5.77,2.58-5.77,5.77Z"></path>
  <path class="cls-2" d="M678.05,313.98c0,3.18,2.58,5.77,5.77,5.77s5.77-2.58,5.77-5.77-2.58-5.77-5.77-5.77-5.77,2.58-5.77,5.77Z"></path>
  <path class="cls-2" d="M651.2,313.98c0,3.18,2.58,5.77,5.77,5.77s5.77-2.58,5.77-5.77-2.58-5.77-5.77-5.77-5.77,2.58-5.77,5.77Z"></path>
  <path class="cls-2" d="M772.01,327.85c0,3.18,2.58,5.77,5.77,5.77s5.77-2.58,5.77-5.77-2.58-5.77-5.77-5.77-5.77,2.58-5.77,5.77Z"></path>
  <path class="cls-2" d="M745.2,327.85c0,3.18,2.58,5.77,5.77,5.77s5.77-2.58,5.77-5.77-2.58-5.77-5.77-5.77-5.77,2.58-5.77,5.77Z"></path>
  <path class="cls-2" d="M718.37,327.85c0,3.18,2.58,5.77,5.77,5.77s5.76-2.58,5.76-5.77-2.58-5.77-5.76-5.77-5.77,2.58-5.77,5.77Z"></path>
  <path class="cls-2" d="M691.56,327.85c0,3.18,2.58,5.77,5.77,5.77s5.77-2.58,5.77-5.77-2.58-5.77-5.77-5.77-5.77,2.58-5.77,5.77Z"></path>
  <path class="cls-2" d="M664.67,327.85c0,3.18,2.58,5.77,5.77,5.77s5.77-2.58,5.77-5.77-2.58-5.77-5.77-5.77-5.77,2.58-5.77,5.77Z"></path>
  <path class="cls-2" d="M731.78,288.58c0,3.18,2.58,5.77,5.76,5.77s5.77-2.58,5.77-5.77-2.58-5.77-5.77-5.77-5.76,2.58-5.76,5.77Z"></path>
  <path class="cls-2" d="M704.89,288.58c0,3.18,2.58,5.77,5.77,5.77s5.77-2.58,5.77-5.77-2.58-5.77-5.77-5.77-5.77,2.58-5.77,5.77Z"></path>
  <path class="cls-2" d="M678.05,288.58c0,3.18,2.58,5.77,5.77,5.77s5.77-2.58,5.77-5.77-2.58-5.77-5.77-5.77-5.77,2.58-5.77,5.77Z"></path>
  <path class="cls-2" d="M704.86,188.96c0,3.18,2.58,5.77,5.77,5.77s5.77-2.58,5.77-5.77-2.58-5.77-5.77-5.77-5.77,2.58-5.77,5.77Z"></path>
  <path class="cls-2" d="M745.2,302.45c0,3.18,2.58,5.77,5.77,5.77s5.77-2.58,5.77-5.77-2.58-5.77-5.77-5.77-5.77,2.58-5.77,5.77Z"></path>
  <path class="cls-2" d="M718.37,302.45c0,3.18,2.58,5.77,5.77,5.77s5.76-2.58,5.76-5.77-2.58-5.77-5.76-5.77-5.77,2.58-5.77,5.77Z"></path>
  <path class="cls-2" d="M691.56,302.45c0,3.18,2.58,5.77,5.77,5.77s5.77-2.58,5.77-5.77-2.58-5.77-5.77-5.77-5.77,2.58-5.77,5.77Z"></path>
  <path class="cls-2" d="M664.67,302.45c0,3.18,2.58,5.77,5.77,5.77s5.77-2.58,5.77-5.77-2.58-5.77-5.77-5.77-5.77,2.58-5.77,5.77Z"></path>
  <path class="cls-2" d="M704.89,263.18c0,3.18,2.58,5.77,5.77,5.77s5.77-2.58,5.77-5.77-2.58-5.77-5.77-5.77-5.77,2.58-5.77,5.77Z"></path>
  <path class="cls-2" d="M678.05,263.18c0,3.18,2.58,5.77,5.77,5.77s5.77-2.58,5.77-5.77-2.58-5.77-5.77-5.77-5.77,2.58-5.77,5.77Z"></path>
  <path class="cls-2" d="M651.2,263.18c0,3.18,2.58,5.77,5.77,5.77s5.77-2.58,5.77-5.77-2.58-5.77-5.77-5.77-5.77,2.58-5.77,5.77Z"></path>
  <path class="cls-2" d="M718.37,277.05c0,3.18,2.58,5.77,5.77,5.77s5.76-2.58,5.76-5.77-2.58-5.77-5.76-5.77-5.77,2.58-5.77,5.77Z"></path>
  <path class="cls-2" d="M691.56,277.05c0,3.18,2.58,5.77,5.77,5.77s5.77-2.58,5.77-5.77-2.58-5.77-5.77-5.77-5.77,2.58-5.77,5.77Z"></path>
  <path class="cls-2" d="M664.67,277.05c0,3.18,2.58,5.77,5.77,5.77s5.77-2.58,5.77-5.77-2.58-5.77-5.77-5.77-5.77,2.58-5.77,5.77Z"></path>
  <path class="cls-2" d="M731.78,237.79c0,3.18,2.58,5.77,5.76,5.77s5.77-2.58,5.77-5.77-2.58-5.77-5.77-5.77-5.76,2.58-5.76,5.77Z"></path>
  <path class="cls-2" d="M704.89,237.79c0,3.18,2.58,5.77,5.77,5.77s5.77-2.58,5.77-5.77-2.58-5.77-5.77-5.77-5.77,2.58-5.77,5.77Z"></path>
  <path class="cls-2" d="M678.05,237.79c0,3.18,2.58,5.77,5.77,5.77s5.77-2.58,5.77-5.77-2.58-5.77-5.77-5.77-5.77,2.58-5.77,5.77Z"></path>
  <path class="cls-2" d="M651.2,237.79c0,3.18,2.58,5.77,5.77,5.77s5.77-2.58,5.77-5.77-2.58-5.77-5.77-5.77-5.77,2.58-5.77,5.77Z"></path>
  <path class="cls-2" d="M691.56,251.65c0,3.18,2.58,5.77,5.77,5.77s5.77-2.58,5.77-5.77-2.58-5.77-5.77-5.77-5.77,2.58-5.77,5.77Z"></path>
  <path class="cls-2" d="M664.67,251.65c0,3.18,2.58,5.77,5.77,5.77s5.77-2.58,5.77-5.77-2.58-5.77-5.77-5.77-5.77,2.58-5.77,5.77Z"></path>
  <path class="cls-2" d="M731.78,212.39c0,3.18,2.58,5.77,5.76,5.77s5.77-2.58,5.77-5.77-2.58-5.77-5.77-5.77-5.76,2.58-5.76,5.77Z"></path>
  <path class="cls-2" d="M704.89,212.39c0,3.18,2.58,5.77,5.77,5.77s5.77-2.58,5.77-5.77-2.58-5.77-5.77-5.77-5.77,2.58-5.77,5.77Z"></path>
  <path class="cls-2" d="M678.05,212.39c0,3.18,2.58,5.77,5.77,5.77s5.77-2.58,5.77-5.77-2.58-5.77-5.77-5.77-5.77,2.58-5.77,5.77Z"></path>
  <path class="cls-2" d="M651.2,212.39c0,3.18,2.58,5.77,5.77,5.77s5.77-2.58,5.77-5.77-2.58-5.77-5.77-5.77-5.77,2.58-5.77,5.77Z"></path>
  <path class="cls-2" d="M745.2,226.25c0,3.18,2.58,5.77,5.77,5.77s5.77-2.58,5.77-5.77-2.58-5.77-5.77-5.77-5.77,2.58-5.77,5.77Z"></path>
  <path class="cls-2" d="M718.37,226.25c0,3.18,2.58,5.77,5.77,5.77s5.76-2.58,5.76-5.77-2.58-5.77-5.76-5.77-5.77,2.58-5.77,5.77Z"></path>
  <path class="cls-2" d="M691.56,226.25c0,3.18,2.58,5.77,5.77,5.77s5.77-2.58,5.77-5.77-2.58-5.77-5.77-5.77-5.77,2.58-5.77,5.77Z"></path>
  <path class="cls-2" d="M664.67,226.25c0,3.18,2.58,5.77,5.77,5.77s5.77-2.58,5.77-5.77-2.58-5.77-5.77-5.77-5.77,2.58-5.77,5.77Z"></path>
  <path class="cls-2" d="M637.86,226.25c0,3.18,2.58,5.77,5.76,5.77s5.77-2.58,5.77-5.77-2.58-5.77-5.77-5.77-5.76,2.58-5.76,5.77Z"></path>
  <path class="cls-2" d="M744.14,506.8c0,3.18,2.58,5.76,5.76,5.76s5.77-2.58,5.77-5.76-2.58-5.77-5.77-5.77-5.76,2.58-5.76,5.77Z"></path>
  <path class="cls-2" d="M678.05,186.99c0,3.18,2.58,5.77,5.77,5.77s5.77-2.58,5.77-5.77-2.58-5.77-5.77-5.77-5.77,2.58-5.77,5.77Z"></path>
  <path class="cls-2" d="M651.2,186.99c0,3.18,2.58,5.77,5.77,5.77s5.77-2.58,5.77-5.77-2.58-5.77-5.77-5.77-5.77,2.58-5.77,5.77Z"></path>
  <path class="cls-2" d="M731.29,517.95c0,3.18,2.58,5.77,5.77,5.77s5.77-2.58,5.77-5.77-2.58-5.77-5.77-5.77-5.77,2.58-5.77,5.77Z"></path>
  <path class="cls-2" d="M718.37,200.86c0,3.18,2.58,5.77,5.77,5.77s5.76-2.58,5.76-5.77-2.58-5.77-5.76-5.77-5.77,2.58-5.77,5.77Z"></path>
  <path class="cls-2" d="M691.56,200.86c0,3.18,2.58,5.77,5.77,5.77s5.77-2.58,5.77-5.77-2.58-5.77-5.77-5.77-5.77,2.58-5.77,5.77Z"></path>
  <path class="cls-2" d="M664.67,200.86c0,3.18,2.58,5.77,5.77,5.77s5.77-2.58,5.77-5.77-2.58-5.77-5.77-5.77-5.77,2.58-5.77,5.77Z"></path>
  <path class="cls-2" d="M637.86,200.86c0,3.18,2.58,5.77,5.76,5.77s5.77-2.58,5.77-5.77-2.58-5.77-5.77-5.77-5.76,2.58-5.76,5.77Z"></path>
  <path class="cls-2" d="M678.05,161.59c0,3.18,2.58,5.77,5.77,5.77s5.77-2.58,5.77-5.77-2.58-5.77-5.77-5.77-5.77,2.58-5.77,5.77Z"></path>
  <path class="cls-2" d="M651.2,161.59c0,3.18,2.58,5.77,5.77,5.77s5.77-2.58,5.77-5.77-2.58-5.77-5.77-5.77-5.77,2.58-5.77,5.77Z"></path>
  <path class="cls-2" d="M624.39,161.59c0,3.18,2.58,5.77,5.77,5.77s5.77-2.58,5.77-5.77-2.58-5.77-5.77-5.77-5.77,2.58-5.77,5.77Z"></path>
  <path class="cls-2" d="M691.56,175.46c0,3.18,2.58,5.77,5.77,5.77s5.77-2.58,5.77-5.77-2.58-5.77-5.77-5.77-5.77,2.58-5.77,5.77Z"></path>
  <path class="cls-2" d="M664.67,175.46c0,3.18,2.58,5.77,5.77,5.77s5.77-2.58,5.77-5.77-2.58-5.77-5.77-5.77-5.77,2.58-5.77,5.77Z"></path>
  <path class="cls-2" d="M637.86,175.46c0,3.18,2.58,5.77,5.76,5.77s5.77-2.58,5.77-5.77-2.58-5.77-5.77-5.77-5.76,2.58-5.76,5.77Z"></path>
  <path class="cls-2" d="M678.05,136.19c0,3.18,2.58,5.77,5.77,5.77s5.77-2.58,5.77-5.77-2.58-5.77-5.77-5.77-5.77,2.58-5.77,5.77Z"></path>
  <path class="cls-2" d="M651.2,136.19c0,3.18,2.58,5.77,5.77,5.77s5.77-2.58,5.77-5.77-2.58-5.77-5.77-5.77-5.77,2.58-5.77,5.77Z"></path>
  <path class="cls-2" d="M624.39,136.19c0,3.18,2.58,5.77,5.77,5.77s5.77-2.58,5.77-5.77-2.58-5.77-5.77-5.77-5.77,2.58-5.77,5.77Z"></path>
  <path class="cls-2" d="M664.67,150.06c0,3.18,2.58,5.77,5.77,5.77s5.77-2.58,5.77-5.77-2.58-5.77-5.77-5.77-5.77,2.58-5.77,5.77Z"></path>
  <path class="cls-2" d="M637.86,150.06c0,3.18,2.58,5.77,5.76,5.77s5.77-2.58,5.77-5.77-2.58-5.77-5.77-5.77-5.76,2.58-5.76,5.77Z"></path>
  <path class="cls-2" d="M611.03,150.06c0,3.18,2.58,5.77,5.77,5.77s5.77-2.58,5.77-5.77-2.58-5.77-5.77-5.77-5.77,2.58-5.77,5.77Z"></path>
  <path class="cls-2" d="M637.81,99.96c0,3.18,2.58,5.77,5.76,5.77s5.77-2.58,5.77-5.77-2.58-5.77-5.77-5.77-5.76,2.58-5.76,5.77Z"></path>
  <path class="cls-2" d="M651.2,110.79c0,3.18,2.58,5.77,5.77,5.77s5.77-2.58,5.77-5.77-2.58-5.77-5.77-5.77-5.77,2.58-5.77,5.77Z"></path>
  <path class="cls-2" d="M623.95,86.09c0,3.18,2.58,5.77,5.77,5.77s5.77-2.58,5.77-5.77-2.58-5.77-5.77-5.77-5.77,2.58-5.77,5.77Z"></path>
  <path class="cls-2" d="M664.67,124.66c0,3.18,2.58,5.77,5.77,5.77s5.77-2.58,5.77-5.77-2.58-5.77-5.77-5.77-5.77,2.58-5.77,5.77Z"></path>
  <path class="cls-2" d="M637.86,124.66c0,3.18,2.58,5.77,5.76,5.77s5.77-2.58,5.77-5.77-2.58-5.77-5.77-5.77-5.76,2.58-5.76,5.77Z"></path>
  <path class="cls-2" d="M611,124.66c0,3.18,2.58,5.77,5.77,5.77s5.76-2.58,5.76-5.77-2.58-5.77-5.76-5.77-5.77,2.58-5.77,5.77Z"></path>
  <path class="cls-2" d="M611,99.26c0,3.18,2.58,5.77,5.77,5.77s5.76-2.58,5.76-5.77-2.58-5.77-5.76-5.77-5.77,2.58-5.77,5.77Z"></path>
  <path class="cls-2" d="M622.8,111.52c0,3.18,2.58,5.77,5.76,5.77s5.77-2.58,5.77-5.77-2.58-5.77-5.77-5.77-5.76,2.58-5.76,5.77Z"></path>
  <path class="cls-2" d="M597.62,113.13c0,3.18,2.58,5.77,5.77,5.77s5.77-2.58,5.77-5.77-2.58-5.77-5.77-5.77-5.77,2.58-5.77,5.77Z"></path>
  <path class="cls-2" d="M756.86,238.27c0,3.18,2.58,5.77,5.77,5.77s5.76-2.58,5.76-5.77-2.58-5.77-5.76-5.77-5.77,2.58-5.77,5.77Z"></path>
  <path class="cls-2" d="M831.6,455.56c0,3.18,2.58,5.77,5.77,5.77s5.77-2.58,5.77-5.77-2.58-5.77-5.77-5.77-5.77,2.58-5.77,5.77Z"></path>
  <path class="cls-2" d="M814.65,440.15c0,3.18,2.58,5.77,5.77,5.77s5.77-2.58,5.77-5.77-2.58-5.77-5.77-5.77-5.77,2.58-5.77,5.77Z"></path>
  <path class="cls-2" d="M745.3,529.91c0,3.18,2.58,5.77,5.77,5.77s5.77-2.58,5.77-5.77-2.58-5.77-5.77-5.77-5.77,2.58-5.77,5.77Z"></path>
  <path class="cls-2" d="M798.88,454.8c0,3.18,2.58,5.76,5.77,5.76s5.77-2.58,5.77-5.76-2.58-5.77-5.77-5.77-5.77,2.58-5.77,5.77Z"></path>
  <path class="cls-2" d="M758.01,517.95c0,3.18,2.58,5.77,5.77,5.77s5.77-2.58,5.77-5.77-2.58-5.77-5.77-5.77-5.77,2.58-5.77,5.77Z"></path>
  <path class="cls-2" d="M771.88,506.81c0,3.18,2.58,5.77,5.77,5.77s5.77-2.58,5.77-5.77-2.58-5.76-5.77-5.76-5.77,2.58-5.77,5.76Z"></path>
  <path class="cls-2" d="M798.11,530.28c0,3.18,2.58,5.77,5.77,5.77s5.77-2.58,5.77-5.77-2.58-5.77-5.77-5.77-5.77,2.58-5.77,5.77Z"></path>
  <path class="cls-2" d="M771.27,530.28c0,3.18,2.58,5.77,5.77,5.77s5.77-2.58,5.77-5.77-2.58-5.77-5.77-5.77-5.77,2.58-5.77,5.77Z"></path>
  <path class="cls-2" d="M811.58,544.14c0,3.18,2.58,5.77,5.76,5.77s5.77-2.58,5.77-5.77-2.58-5.77-5.77-5.77-5.76,2.58-5.76,5.77Z"></path>
  <path class="cls-2" d="M784.78,544.14c0,3.18,2.58,5.77,5.77,5.77s5.77-2.58,5.77-5.77-2.58-5.77-5.77-5.77-5.77,2.58-5.77,5.77Z"></path>
  <path class="cls-2" d="M784.78,518.74c0,3.18,2.58,5.77,5.77,5.77s5.77-2.58,5.77-5.77-2.58-5.77-5.77-5.77-5.77,2.58-5.77,5.77Z"></path>
  <path class="cls-2" d="M770.65,582.7c0,3.18,2.58,5.77,5.76,5.77s5.77-2.58,5.77-5.77-2.58-5.77-5.77-5.77-5.76,2.58-5.76,5.77Z"></path>
  <path class="cls-2" d="M824.35,557.3c0,3.18,2.58,5.76,5.76,5.76s5.77-2.58,5.77-5.76-2.58-5.77-5.77-5.77-5.76,2.58-5.76,5.77Z"></path>
  <path class="cls-2" d="M797.51,557.3c0,3.18,2.58,5.76,5.77,5.76s5.77-2.58,5.77-5.76-2.58-5.77-5.77-5.77-5.77,2.58-5.77,5.77Z"></path>
  <path class="cls-2" d="M770.65,557.3c0,3.18,2.58,5.76,5.76,5.76s5.77-2.58,5.77-5.76-2.58-5.77-5.77-5.77-5.76,2.58-5.76,5.77Z"></path>
  <path class="cls-2" d="M744.42,583.4c0,3.18,2.58,5.77,5.77,5.77s5.77-2.58,5.77-5.77-2.58-5.77-5.77-5.77-5.77,2.58-5.77,5.77Z"></path>
  <path class="cls-2" d="M837.82,571.16c0,3.18,2.58,5.77,5.77,5.77s5.77-2.58,5.77-5.77-2.58-5.77-5.77-5.77-5.77,2.58-5.77,5.77Z"></path>
  <path class="cls-2" d="M811.02,571.16c0,3.18,2.58,5.77,5.77,5.77s5.77-2.58,5.77-5.77-2.58-5.77-5.77-5.77-5.77,2.58-5.77,5.77Z"></path>
  <path class="cls-2" d="M784.12,571.16c0,3.18,2.58,5.77,5.77,5.77s5.77-2.58,5.77-5.77-2.58-5.77-5.77-5.77-5.77,2.58-5.77,5.77Z"></path>
  <path class="cls-2" d="M757.32,571.16c0,3.18,2.58,5.77,5.77,5.77s5.76-2.58,5.76-5.77-2.58-5.77-5.76-5.77-5.77,2.58-5.77,5.77Z"></path>
  <path class="cls-2" d="M852.85,585.04c0,3.18,2.58,5.77,5.77,5.77s5.77-2.58,5.77-5.77-2.58-5.77-5.77-5.77-5.77,2.58-5.77,5.77Z"></path>
  <path class="cls-2" d="M825.96,585.04c0,3.18,2.58,5.77,5.77,5.77s5.77-2.58,5.77-5.77-2.58-5.77-5.77-5.77-5.77,2.58-5.77,5.77Z"></path>
  <path class="cls-2" d="M799.12,585.04c0,3.18,2.58,5.77,5.77,5.77s5.77-2.58,5.77-5.77-2.58-5.77-5.77-5.77-5.77,2.58-5.77,5.77Z"></path>
  <path class="cls-3" d="M624.39,593.37c0,3.18,2.58,5.76,5.77,5.76s5.77-2.58,5.77-5.76-2.58-5.77-5.77-5.77-5.77,2.58-5.77,5.77Z"></path>
  <path class="cls-3" d="M624.55,618.14c0,3.18,2.58,5.77,5.77,5.77s5.77-2.58,5.77-5.77-2.58-5.77-5.77-5.77-5.77,2.58-5.77,5.77Z"></path>
  <path class="cls-3" d="M611.74,631.95c0,3.18,2.58,5.77,5.77,5.77s5.77-2.58,5.77-5.77-2.58-5.76-5.77-5.76-5.77,2.58-5.77,5.76Z"></path>
  <path class="cls-3" d="M611.84,605.43c0,3.18,2.58,5.77,5.77,5.77s5.77-2.58,5.77-5.77-2.58-5.77-5.77-5.77-5.77,2.58-5.77,5.77Z"></path>
  <path class="cls-3" d="M637.8,605.79c0,3.18,2.58,5.77,5.77,5.77s5.77-2.58,5.77-5.77-2.58-5.77-5.77-5.77-5.77,2.58-5.77,5.77Z"></path>
  <path class="cls-3" d="M637.19,658.21c0,3.18,2.58,5.76,5.77,5.76s5.77-2.58,5.77-5.76-2.58-5.77-5.77-5.77-5.77,2.58-5.77,5.77Z"></path>
  <path class="cls-3" d="M637.19,632.81c0,3.18,2.58,5.77,5.77,5.77s5.77-2.58,5.77-5.77-2.58-5.77-5.77-5.77-5.77,2.58-5.77,5.77Z"></path>
  <path class="cls-3" d="M610.96,658.91c0,3.18,2.58,5.77,5.77,5.77s5.77-2.58,5.77-5.77-2.58-5.77-5.77-5.77-5.77,2.58-5.77,5.77Z"></path>
  <path class="cls-3" d="M623.85,646.68c0,3.18,2.58,5.77,5.77,5.77s5.77-2.58,5.77-5.77-2.58-5.77-5.77-5.77-5.77,2.58-5.77,5.77Z"></path>
  <rect class="cls-1" x="664.22" y="689.46" width="11.72" height="11.51"></rect>
  <rect class="cls-1" x="664.22" y="704.64" width="11.72" height="42.85"></rect>
  <path class="cls-1" d="M499.23,746.5h-9.15l-11.07-38.58h-.17l-10.98,38.58h-9.18l-15.43-56.99h12.06l8.59,39.4h.16l10.15-39.4h10.49l10,39.4h.16l8.68-39.4h11.23l-15.54,56.99Z"></path>
  <path class="cls-1" d="M551.11,746.5l-4.96-15.38h-17.58l-4.97,15.38h-11.06l20.98-56.99h8.68l20.89,56.99h-11.98ZM537.48,703.72h-.16l-6.26,19.49h12.72l-6.29-19.49Z"></path>
  <path class="cls-1" d="M580.97,689.51v47.89h22.63l-.66,9.1h-33.04v-56.99h11.08Z"></path>
  <path class="cls-1" d="M610.79,746.5v-56.99h13.63c21.63,0,31.55,8.02,31.55,27.68s-12.39,29.31-32.3,29.31h-12.89ZM621.86,698.66v38.66h1.81c13.55,0,20.73-5.53,20.73-20.13,0-13.71-6.77-18.53-19.98-18.53h-2.56Z"></path>
  <path class="cls-1" d="M729.7,746.5h-9.5l-23.46-35.59h-.17v35.59h-11.06v-56.99h9.5l23.45,35.34h.17v-35.34h11.08v56.99Z"></path>
  <path class="cls-1" d="M765.5,746.5h-8.68l-20.31-56.99h12.22l12.8,41.2h.17l12.89-41.2h11.23l-20.31,56.99Z"></path>
  <path class="cls-1" d="M825.08,698.59h-21.39v14.62h19.82v9.1h-19.82v15.1h24.12l-.66,9.1h-34.53v-56.99h33.13l-.66,9.08Z"></path>
  <path class="cls-1" d="M880.77,746.5h-9.51l-23.45-35.59h-.16v35.59h-11.06v-56.99h9.49l23.46,35.34h.16v-35.34h11.07v56.99Z"></path>
  <path class="cls-1" d="M932.43,698.59h-16.51v47.91h-11.07v-47.91h-16.67v-9.08h44.92l-.66,9.08Z"></path>
  <path class="cls-1" d="M984.17,722.64c0,16.67-7.43,24.86-22.46,24.86s-21.72-7.69-21.72-24.86v-33.13h11.07v33.46c0,10.56,3.54,15.18,11.07,15.18s11.4-4.45,11.4-15.18v-33.46h10.65v33.13Z"></path>
  <path class="cls-1" d="M1024.95,746.5l-12.14-20.82c-1.08.08-2.31.08-3.47.08h-2.08v20.74h-11.06v-56.99h13.55c16.03,0,23.45,6.28,23.45,17.75,0,7.02-3.31,12.64-9.82,15.79l14.62,23.45h-13.05ZM1009.75,698.59h-2.49v18.43h2.08c8.33,0,12.3-3.57,12.3-9.68s-3.81-8.75-11.89-8.75Z"></path>
  <path class="cls-4" d="M174.25,718.03v.17c5.37,1.08,11.81,5.28,11.81,13.22,0,9.43-7.02,16.04-23.37,16.04h-14.2v-56.99h13.46c16.68,0,22.56,5.78,22.56,15.01,0,8.19-5.37,11.09-10.25,12.55ZM161.94,699.2h-2.38v15.29h2.3c7.86,0,11.48-3.07,11.48-8.19,0-4.37-3.22-7.11-11.4-7.11ZM163.18,723.09h-3.62v15.43h3.13c8.43,0,11.97-2.74,11.97-7.85s-4.04-7.58-11.48-7.58Z"></path>
  <path class="cls-4" d="M239.22,723.56c0,16.7-7.42,24.86-22.45,24.86s-21.72-7.66-21.72-24.86v-33.1h11.07v33.43c0,10.59,3.55,15.21,11.06,15.21s11.39-4.45,11.39-15.21v-33.43h10.65v33.1Z"></path>
  <path class="cls-4" d="M295.46,747.45h-9.51l-23.45-35.62h-.17v35.62h-11.07v-56.99h9.51l23.46,35.34h.16v-35.34h11.07v56.99Z"></path>
  <path class="cls-4" d="M307.93,747.45v-56.99h13.62c21.64,0,31.55,8.02,31.55,27.65s-12.39,29.34-32.29,29.34h-12.88ZM318.99,699.61v38.66h1.82c13.54,0,20.73-5.53,20.73-20.16,0-13.69-6.78-18.5-19.99-18.5h-2.56Z"></path>
  <path class="cls-4" d="M395.44,699.53h-21.4v14.63h19.83v9.1h-19.83v15.1h24.12l-.66,9.1h-34.52v-56.99h33.12l-.65,9.07Z"></path>
  <path class="cls-4" d="M433.96,702.68c-1.31-1.08-4.7-3.98-10.16-3.98s-7.67,2.32-7.67,5.14c0,3.54,1.65,5.28,6.27,8.07l6.2,3.82c7.75,4.78,11.15,9.32,11.15,16.59,0,7.94-5.62,16.09-19.41,16.09-9.17,0-13.95-3.95-15.86-5.53l3.63-9.24c1.89,1.91,6.11,5.37,12.06,5.37s8.59-2.49,8.59-5.28c0-3.81-1.66-5.78-6.04-8.68l-6.19-4.12c-7.85-5.2-11.24-9.26-11.24-16.84,0-8.1,6.76-14.63,18.16-14.63,8.03,0,12.14,3.15,13.96,4.45l-3.47,8.77Z"></path>
  <path class="cls-1" d="M476.37,633.55c0,3.18,2.58,5.77,5.77,5.77s5.77-2.58,5.77-5.77-2.58-5.77-5.77-5.77-5.77,2.58-5.77,5.77Z"></path>
  <path class="cls-1" d="M463.56,647.36c0,3.18,2.58,5.77,5.77,5.77s5.77-2.58,5.77-5.77-2.58-5.77-5.77-5.77-5.77,2.58-5.77,5.77Z"></path>
  <path class="cls-1" d="M463.66,620.84c0,3.18,2.58,5.77,5.77,5.77s5.77-2.58,5.77-5.77-2.58-5.77-5.77-5.77-5.77,2.58-5.77,5.77Z"></path>
  <path class="cls-1" d="M476.37,608.88c0,3.18,2.58,5.77,5.77,5.77s5.77-2.58,5.77-5.77-2.58-5.77-5.77-5.77-5.77,2.58-5.77,5.77Z"></path>
  <path class="cls-1" d="M489.62,621.2c0,3.18,2.58,5.77,5.77,5.77s5.77-2.58,5.77-5.77-2.58-5.77-5.77-5.77-5.77,2.58-5.77,5.77Z"></path>
  <path class="cls-1" d="M489.01,673.62c0,3.18,2.58,5.77,5.77,5.77s5.77-2.58,5.77-5.77-2.58-5.77-5.77-5.77-5.77,2.58-5.77,5.77Z"></path>
  <path class="cls-1" d="M489.01,648.22c0,3.18,2.58,5.76,5.77,5.76s5.77-2.58,5.77-5.76-2.58-5.77-5.77-5.77-5.77,2.58-5.77,5.77Z"></path>
  <path class="cls-1" d="M462.78,674.32c0,3.18,2.58,5.77,5.77,5.77s5.77-2.58,5.77-5.77-2.58-5.77-5.77-5.77-5.77,2.58-5.77,5.77Z"></path>
  <path class="cls-1" d="M475.67,662.09c0,3.18,2.58,5.76,5.77,5.76s5.77-2.58,5.77-5.76-2.58-5.77-5.77-5.77-5.77,2.58-5.77,5.77Z"></path>
</svg>
